<mxfile host="app.diagrams.net" modified="2024-03-04T13:19:40.496Z" agent="Mozilla/5.0 (X11; Linux x86_64) AppleWebKit/537.36 (KHTML, like Gecko) Chrome/121.0.0.0 Safari/537.36" etag="rl2FemDC4jttPe2Z4SF3" version="24.0.1" type="github">
  <diagram id="HF3EYHtyEsSgDk29EQUM" name="Страница 1">
    <mxGraphModel dx="2124" dy="535" grid="0" gridSize="10" guides="1" tooltips="1" connect="1" arrows="1" fold="1" page="1" pageScale="1" pageWidth="1169" pageHeight="827" math="0" shadow="0">
      <root>
        <mxCell id="0" />
        <mxCell id="1" parent="0" />
        <mxCell id="90lqPr3b5wlRCQ1Bb15_-1" value="&lt;p style=&quot;line-height: 100%; margin-bottom: 0cm; font-size: 13px;&quot;&gt;&lt;font style=&quot;font-size: 13px;&quot;&gt;&lt;font color=&quot;#000000&quot; style=&quot;font-size: 13px;&quot;&gt;&lt;font face=&quot;DejaVu Sans Condensed, sans-serif&quot; style=&quot;font-size: 13px;&quot;&gt;&lt;b style=&quot;font-size: 13px;&quot;&gt;Manage USB-ports (USBGuard)&lt;/b&gt;&lt;/font&gt;&lt;/font&gt;&lt;/font&gt;&lt;br style=&quot;font-size: 13px;&quot;&gt;&lt;/p&gt;" style="text;whiteSpace=wrap;html=1;fontSize=13;" parent="1" vertex="1">
          <mxGeometry x="8" width="450" height="50" as="geometry" />
        </mxCell>
        <mxCell id="3SDEc3MKjUo-QjRz-hxS-2" value="" style="group;fontSize=13;" parent="1" vertex="1" connectable="0">
          <mxGeometry x="11" y="164" width="410" height="30" as="geometry" />
        </mxCell>
        <mxCell id="j7Y8htLGbgiCzbjYnlhf-1" value="&lt;font style=&quot;font-size: 13px;&quot;&gt;Control USB device connections&lt;/font&gt;" style="text;html=1;align=left;verticalAlign=top;resizable=0;points=[];autosize=1;strokeColor=none;fillColor=none;spacing=2;fontSize=13;" parent="3SDEc3MKjUo-QjRz-hxS-2" vertex="1">
          <mxGeometry x="30" width="196" height="28" as="geometry" />
        </mxCell>
        <mxCell id="3SDEc3MKjUo-QjRz-hxS-1" value="" style="rounded=1;whiteSpace=wrap;html=1;shadow=0;labelBackgroundColor=none;strokeWidth=1;fontFamily=Verdana;fontSize=13;align=center;" parent="3SDEc3MKjUo-QjRz-hxS-2" vertex="1">
          <mxGeometry y="5" width="20" height="20" as="geometry" />
        </mxCell>
        <mxCell id="3SDEc3MKjUo-QjRz-hxS-3" value="" style="group;fontSize=13;" parent="1" vertex="1" connectable="0">
          <mxGeometry x="40" y="432" width="869" height="201" as="geometry" />
        </mxCell>
        <mxCell id="3SDEc3MKjUo-QjRz-hxS-6" value="" style="ellipse;whiteSpace=wrap;html=1;aspect=fixed;fontSize=13;" parent="3SDEc3MKjUo-QjRz-hxS-3" vertex="1">
          <mxGeometry x="13" y="35.5" width="15" height="15" as="geometry" />
        </mxCell>
        <mxCell id="gBsZXXF_Xg-kHRnBOiRI-2" value="Свой режим" style="text;html=1;align=left;verticalAlign=middle;resizable=0;points=[];autosize=1;strokeColor=none;fillColor=none;spacing=2;labelPosition=center;verticalLabelPosition=middle;" vertex="1" parent="3SDEc3MKjUo-QjRz-hxS-3">
          <mxGeometry x="33" y="70" width="90" height="30" as="geometry" />
        </mxCell>
        <mxCell id="gBsZXXF_Xg-kHRnBOiRI-3" value="" style="ellipse;whiteSpace=wrap;html=1;aspect=fixed;fontSize=13;" vertex="1" parent="3SDEc3MKjUo-QjRz-hxS-3">
          <mxGeometry x="13" y="77.5" width="15" height="15" as="geometry" />
        </mxCell>
        <mxCell id="3SDEc3MKjUo-QjRz-hxS-46" value="&lt;font face=&quot;monospace&quot;&gt;Rules lists:&lt;/font&gt;" style="text;html=1;align=left;verticalAlign=top;resizable=0;points=[];autosize=1;strokeColor=none;fillColor=none;spacing=2;fontSize=13;" parent="3SDEc3MKjUo-QjRz-hxS-3" vertex="1">
          <mxGeometry x="-29" y="-21" width="114" height="28" as="geometry" />
        </mxCell>
        <mxCell id="3SDEc3MKjUo-QjRz-hxS-74" value="" style="group;fontSize=13;" parent="3SDEc3MKjUo-QjRz-hxS-3" vertex="1" connectable="0">
          <mxGeometry x="3" y="144" width="410" height="30" as="geometry" />
        </mxCell>
        <mxCell id="3SDEc3MKjUo-QjRz-hxS-75" value="Блокировать USB Mass Storage, MTP/PTP (список CC:SS:PP)" style="text;html=1;align=left;verticalAlign=top;resizable=0;points=[];autosize=1;strokeColor=none;fillColor=none;spacing=2;" parent="3SDEc3MKjUo-QjRz-hxS-74" vertex="1">
          <mxGeometry x="30" width="350" height="26" as="geometry" />
        </mxCell>
        <mxCell id="3SDEc3MKjUo-QjRz-hxS-76" value="" style="ellipse;whiteSpace=wrap;html=1;aspect=fixed;fontSize=13;" parent="3SDEc3MKjUo-QjRz-hxS-74" vertex="1">
          <mxGeometry x="10" y="7.5" width="15" height="15" as="geometry" />
        </mxCell>
        <mxCell id="3SDEc3MKjUo-QjRz-hxS-71" value="" style="group;" parent="3SDEc3MKjUo-QjRz-hxS-3" vertex="1" connectable="0">
          <mxGeometry x="3" y="118" width="514" height="30" as="geometry" />
        </mxCell>
        <mxCell id="3SDEc3MKjUo-QjRz-hxS-72" value="Блокировать устройства поддерживающие Android Debug Bridge (список PID:VID)" style="text;html=1;align=left;verticalAlign=top;resizable=0;points=[];autosize=1;strokeColor=none;fillColor=none;spacing=2;" parent="3SDEc3MKjUo-QjRz-hxS-71" vertex="1">
          <mxGeometry x="30" width="484" height="26" as="geometry" />
        </mxCell>
        <mxCell id="3SDEc3MKjUo-QjRz-hxS-73" value="" style="ellipse;whiteSpace=wrap;html=1;aspect=fixed;fontSize=13;" parent="3SDEc3MKjUo-QjRz-hxS-71" vertex="1">
          <mxGeometry x="10" y="7.5" width="15" height="15" as="geometry" />
        </mxCell>
        <mxCell id="3SDEc3MKjUo-QjRz-hxS-78" value="Свой режим" style="text;html=1;align=left;verticalAlign=middle;resizable=0;points=[];autosize=1;strokeColor=none;fillColor=none;spacing=2;labelPosition=center;verticalLabelPosition=middle;" parent="3SDEc3MKjUo-QjRz-hxS-3" vertex="1">
          <mxGeometry x="36" y="171" width="90" height="30" as="geometry" />
        </mxCell>
        <mxCell id="3SDEc3MKjUo-QjRz-hxS-79" value="" style="ellipse;whiteSpace=wrap;html=1;aspect=fixed;fontSize=13;" parent="3SDEc3MKjUo-QjRz-hxS-3" vertex="1">
          <mxGeometry x="13" y="178.5" width="15" height="15" as="geometry" />
        </mxCell>
        <mxCell id="3SDEc3MKjUo-QjRz-hxS-161" value="" style="group;" parent="3SDEc3MKjUo-QjRz-hxS-3" vertex="1" connectable="0">
          <mxGeometry x="-62" y="97" width="410" height="30" as="geometry" />
        </mxCell>
        <mxCell id="3SDEc3MKjUo-QjRz-hxS-162" value="Чёрный список" style="text;html=1;align=left;verticalAlign=top;resizable=0;points=[];autosize=1;strokeColor=none;fillColor=none;spacing=2;" parent="3SDEc3MKjUo-QjRz-hxS-161" vertex="1">
          <mxGeometry x="36.5" y="-2" width="104" height="26" as="geometry" />
        </mxCell>
        <mxCell id="3SDEc3MKjUo-QjRz-hxS-164" value="" style="group;" parent="3SDEc3MKjUo-QjRz-hxS-3" vertex="1" connectable="0">
          <mxGeometry x="-57" y="4.25" width="630" height="68.75" as="geometry" />
        </mxCell>
        <mxCell id="3SDEc3MKjUo-QjRz-hxS-165" value="Белый список" style="text;html=1;align=left;verticalAlign=top;resizable=0;points=[];autosize=1;strokeColor=none;fillColor=none;spacing=2;" parent="3SDEc3MKjUo-QjRz-hxS-164" vertex="1">
          <mxGeometry x="29.5" width="96" height="26" as="geometry" />
        </mxCell>
        <mxCell id="3SDEc3MKjUo-QjRz-hxS-69" value="Блокировать всё, кроме подключённых устройств и HID/HUB устройств" style="text;html=1;align=left;verticalAlign=middle;resizable=0;points=[];autosize=1;strokeColor=none;fillColor=none;spacing=2;labelPosition=center;verticalLabelPosition=middle;" parent="3SDEc3MKjUo-QjRz-hxS-164" vertex="1">
          <mxGeometry x="90" y="23.75" width="428" height="26" as="geometry" />
        </mxCell>
        <mxCell id="3SDEc3MKjUo-QjRz-hxS-70" value="" style="ellipse;whiteSpace=wrap;html=1;aspect=fixed;fontSize=13;" parent="3SDEc3MKjUo-QjRz-hxS-164" vertex="1">
          <mxGeometry x="70" y="53.75" width="15" height="15" as="geometry" />
        </mxCell>
        <mxCell id="3SDEc3MKjUo-QjRz-hxS-4" value="Блокировать всё, кроме подключённых устройств" style="text;html=1;align=left;verticalAlign=top;resizable=0;points=[];autosize=1;strokeColor=none;fillColor=none;spacing=2;" parent="3SDEc3MKjUo-QjRz-hxS-3" vertex="1">
          <mxGeometry x="33" y="50.5" width="305" height="26" as="geometry" />
        </mxCell>
        <mxCell id="3SDEc3MKjUo-QjRz-hxS-13" value="Device list" style="shape=table;startSize=30;container=1;collapsible=0;childLayout=tableLayout;strokeColor=#6c8ebf;fontSize=13;fillColor=#dae8fc;" parent="1" vertex="1">
          <mxGeometry x="11" y="235" width="790" height="90" as="geometry" />
        </mxCell>
        <mxCell id="3SDEc3MKjUo-QjRz-hxS-14" value="" style="shape=tableRow;horizontal=0;startSize=0;swimlaneHead=0;swimlaneBody=0;strokeColor=inherit;top=0;left=0;bottom=0;right=0;collapsible=0;dropTarget=0;fillColor=none;points=[[0,0.5],[1,0.5]];portConstraint=eastwest;fontSize=13;" parent="3SDEc3MKjUo-QjRz-hxS-13" vertex="1">
          <mxGeometry y="30" width="790" height="20" as="geometry" />
        </mxCell>
        <mxCell id="3SDEc3MKjUo-QjRz-hxS-142" value="№" style="shape=partialRectangle;html=1;whiteSpace=wrap;connectable=0;strokeColor=inherit;overflow=hidden;fillColor=none;top=0;left=0;bottom=0;right=0;pointerEvents=1;fontSize=13;" parent="3SDEc3MKjUo-QjRz-hxS-14" vertex="1">
          <mxGeometry width="31" height="20" as="geometry">
            <mxRectangle width="31" height="20" as="alternateBounds" />
          </mxGeometry>
        </mxCell>
        <mxCell id="3SDEc3MKjUo-QjRz-hxS-157" value="Port&amp;nbsp;&amp;nbsp;↓" style="shape=partialRectangle;html=1;whiteSpace=wrap;connectable=0;strokeColor=inherit;overflow=hidden;fillColor=none;top=0;left=0;bottom=0;right=0;pointerEvents=1;fontSize=13;" parent="3SDEc3MKjUo-QjRz-hxS-14" vertex="1">
          <mxGeometry x="31" width="119" height="20" as="geometry">
            <mxRectangle width="119" height="20" as="alternateBounds" />
          </mxGeometry>
        </mxCell>
        <mxCell id="3SDEc3MKjUo-QjRz-hxS-15" value="CC:SS:PP" style="shape=partialRectangle;html=1;whiteSpace=wrap;connectable=0;strokeColor=inherit;overflow=hidden;fillColor=none;top=0;left=0;bottom=0;right=0;pointerEvents=1;fontSize=13;" parent="3SDEc3MKjUo-QjRz-hxS-14" vertex="1">
          <mxGeometry x="150" width="118" height="20" as="geometry">
            <mxRectangle width="118" height="20" as="alternateBounds" />
          </mxGeometry>
        </mxCell>
        <mxCell id="3SDEc3MKjUo-QjRz-hxS-16" value="VID" style="shape=partialRectangle;html=1;whiteSpace=wrap;connectable=0;strokeColor=inherit;overflow=hidden;fillColor=none;top=0;left=0;bottom=0;right=0;pointerEvents=1;fontSize=13;" parent="3SDEc3MKjUo-QjRz-hxS-14" vertex="1">
          <mxGeometry x="268" width="75" height="20" as="geometry">
            <mxRectangle width="75" height="20" as="alternateBounds" />
          </mxGeometry>
        </mxCell>
        <mxCell id="3SDEc3MKjUo-QjRz-hxS-38" value="Vendor" style="shape=partialRectangle;html=1;whiteSpace=wrap;connectable=0;strokeColor=inherit;overflow=hidden;fillColor=none;top=0;left=0;bottom=0;right=0;pointerEvents=1;fontSize=13;" parent="3SDEc3MKjUo-QjRz-hxS-14" vertex="1">
          <mxGeometry x="343" width="73" height="20" as="geometry">
            <mxRectangle width="73" height="20" as="alternateBounds" />
          </mxGeometry>
        </mxCell>
        <mxCell id="3SDEc3MKjUo-QjRz-hxS-17" value="PID" style="shape=partialRectangle;html=1;whiteSpace=wrap;connectable=0;strokeColor=inherit;overflow=hidden;fillColor=none;top=0;left=0;bottom=0;right=0;pointerEvents=1;fontSize=13;" parent="3SDEc3MKjUo-QjRz-hxS-14" vertex="1">
          <mxGeometry x="416" width="76" height="20" as="geometry">
            <mxRectangle width="76" height="20" as="alternateBounds" />
          </mxGeometry>
        </mxCell>
        <mxCell id="3SDEc3MKjUo-QjRz-hxS-35" value="Product" style="shape=partialRectangle;html=1;whiteSpace=wrap;connectable=0;strokeColor=inherit;overflow=hidden;fillColor=none;top=0;left=0;bottom=0;right=0;pointerEvents=1;fontSize=13;" parent="3SDEc3MKjUo-QjRz-hxS-14" vertex="1">
          <mxGeometry x="492" width="75" height="20" as="geometry">
            <mxRectangle width="75" height="20" as="alternateBounds" />
          </mxGeometry>
        </mxCell>
        <mxCell id="3SDEc3MKjUo-QjRz-hxS-26" value="SN" style="shape=partialRectangle;html=1;whiteSpace=wrap;connectable=0;strokeColor=inherit;overflow=hidden;fillColor=none;top=0;left=0;bottom=0;right=0;pointerEvents=1;fontSize=13;" parent="3SDEc3MKjUo-QjRz-hxS-14" vertex="1">
          <mxGeometry x="567" width="74" height="20" as="geometry">
            <mxRectangle width="74" height="20" as="alternateBounds" />
          </mxGeometry>
        </mxCell>
        <mxCell id="3SDEc3MKjUo-QjRz-hxS-29" value="Hash" style="shape=partialRectangle;html=1;whiteSpace=wrap;connectable=0;strokeColor=inherit;overflow=hidden;fillColor=none;top=0;left=0;bottom=0;right=0;pointerEvents=1;fontSize=13;" parent="3SDEc3MKjUo-QjRz-hxS-14" vertex="1">
          <mxGeometry x="641" width="74" height="20" as="geometry">
            <mxRectangle width="74" height="20" as="alternateBounds" />
          </mxGeometry>
        </mxCell>
        <mxCell id="3SDEc3MKjUo-QjRz-hxS-32" value="Status" style="shape=partialRectangle;html=1;whiteSpace=wrap;connectable=0;strokeColor=inherit;overflow=hidden;fillColor=none;top=0;left=0;bottom=0;right=0;pointerEvents=1;fontSize=13;" parent="3SDEc3MKjUo-QjRz-hxS-14" vertex="1">
          <mxGeometry x="715" width="75" height="20" as="geometry">
            <mxRectangle width="75" height="20" as="alternateBounds" />
          </mxGeometry>
        </mxCell>
        <mxCell id="3SDEc3MKjUo-QjRz-hxS-18" value="" style="shape=tableRow;horizontal=0;startSize=0;swimlaneHead=0;swimlaneBody=0;strokeColor=inherit;top=0;left=0;bottom=0;right=0;collapsible=0;dropTarget=0;fillColor=none;points=[[0,0.5],[1,0.5]];portConstraint=eastwest;fontSize=13;" parent="3SDEc3MKjUo-QjRz-hxS-13" vertex="1">
          <mxGeometry y="50" width="790" height="20" as="geometry" />
        </mxCell>
        <mxCell id="3SDEc3MKjUo-QjRz-hxS-143" style="shape=partialRectangle;html=1;whiteSpace=wrap;connectable=0;strokeColor=inherit;overflow=hidden;fillColor=none;top=0;left=0;bottom=0;right=0;pointerEvents=1;fontSize=13;" parent="3SDEc3MKjUo-QjRz-hxS-18" vertex="1">
          <mxGeometry width="31" height="20" as="geometry">
            <mxRectangle width="31" height="20" as="alternateBounds" />
          </mxGeometry>
        </mxCell>
        <mxCell id="3SDEc3MKjUo-QjRz-hxS-158" style="shape=partialRectangle;html=1;whiteSpace=wrap;connectable=0;strokeColor=inherit;overflow=hidden;fillColor=none;top=0;left=0;bottom=0;right=0;pointerEvents=1;fontSize=13;" parent="3SDEc3MKjUo-QjRz-hxS-18" vertex="1">
          <mxGeometry x="31" width="119" height="20" as="geometry">
            <mxRectangle width="119" height="20" as="alternateBounds" />
          </mxGeometry>
        </mxCell>
        <mxCell id="3SDEc3MKjUo-QjRz-hxS-19" value="" style="shape=partialRectangle;html=1;whiteSpace=wrap;connectable=0;strokeColor=inherit;overflow=hidden;fillColor=none;top=0;left=0;bottom=0;right=0;pointerEvents=1;fontSize=13;" parent="3SDEc3MKjUo-QjRz-hxS-18" vertex="1">
          <mxGeometry x="150" width="118" height="20" as="geometry">
            <mxRectangle width="118" height="20" as="alternateBounds" />
          </mxGeometry>
        </mxCell>
        <mxCell id="3SDEc3MKjUo-QjRz-hxS-20" value="" style="shape=partialRectangle;html=1;whiteSpace=wrap;connectable=0;strokeColor=inherit;overflow=hidden;fillColor=none;top=0;left=0;bottom=0;right=0;pointerEvents=1;fontSize=13;" parent="3SDEc3MKjUo-QjRz-hxS-18" vertex="1">
          <mxGeometry x="268" width="75" height="20" as="geometry">
            <mxRectangle width="75" height="20" as="alternateBounds" />
          </mxGeometry>
        </mxCell>
        <mxCell id="3SDEc3MKjUo-QjRz-hxS-39" style="shape=partialRectangle;html=1;whiteSpace=wrap;connectable=0;strokeColor=inherit;overflow=hidden;fillColor=none;top=0;left=0;bottom=0;right=0;pointerEvents=1;fontSize=13;" parent="3SDEc3MKjUo-QjRz-hxS-18" vertex="1">
          <mxGeometry x="343" width="73" height="20" as="geometry">
            <mxRectangle width="73" height="20" as="alternateBounds" />
          </mxGeometry>
        </mxCell>
        <mxCell id="3SDEc3MKjUo-QjRz-hxS-21" value="" style="shape=partialRectangle;html=1;whiteSpace=wrap;connectable=0;strokeColor=inherit;overflow=hidden;fillColor=none;top=0;left=0;bottom=0;right=0;pointerEvents=1;fontSize=13;" parent="3SDEc3MKjUo-QjRz-hxS-18" vertex="1">
          <mxGeometry x="416" width="76" height="20" as="geometry">
            <mxRectangle width="76" height="20" as="alternateBounds" />
          </mxGeometry>
        </mxCell>
        <mxCell id="3SDEc3MKjUo-QjRz-hxS-36" style="shape=partialRectangle;html=1;whiteSpace=wrap;connectable=0;strokeColor=inherit;overflow=hidden;fillColor=none;top=0;left=0;bottom=0;right=0;pointerEvents=1;fontSize=13;" parent="3SDEc3MKjUo-QjRz-hxS-18" vertex="1">
          <mxGeometry x="492" width="75" height="20" as="geometry">
            <mxRectangle width="75" height="20" as="alternateBounds" />
          </mxGeometry>
        </mxCell>
        <mxCell id="3SDEc3MKjUo-QjRz-hxS-27" style="shape=partialRectangle;html=1;whiteSpace=wrap;connectable=0;strokeColor=inherit;overflow=hidden;fillColor=none;top=0;left=0;bottom=0;right=0;pointerEvents=1;fontSize=13;" parent="3SDEc3MKjUo-QjRz-hxS-18" vertex="1">
          <mxGeometry x="567" width="74" height="20" as="geometry">
            <mxRectangle width="74" height="20" as="alternateBounds" />
          </mxGeometry>
        </mxCell>
        <mxCell id="3SDEc3MKjUo-QjRz-hxS-30" style="shape=partialRectangle;html=1;whiteSpace=wrap;connectable=0;strokeColor=inherit;overflow=hidden;fillColor=none;top=0;left=0;bottom=0;right=0;pointerEvents=1;fontSize=13;" parent="3SDEc3MKjUo-QjRz-hxS-18" vertex="1">
          <mxGeometry x="641" width="74" height="20" as="geometry">
            <mxRectangle width="74" height="20" as="alternateBounds" />
          </mxGeometry>
        </mxCell>
        <mxCell id="3SDEc3MKjUo-QjRz-hxS-33" style="shape=partialRectangle;html=1;whiteSpace=wrap;connectable=0;strokeColor=inherit;overflow=hidden;fillColor=none;top=0;left=0;bottom=0;right=0;pointerEvents=1;fontSize=13;" parent="3SDEc3MKjUo-QjRz-hxS-18" vertex="1">
          <mxGeometry x="715" width="75" height="20" as="geometry">
            <mxRectangle width="75" height="20" as="alternateBounds" />
          </mxGeometry>
        </mxCell>
        <mxCell id="3SDEc3MKjUo-QjRz-hxS-22" value="" style="shape=tableRow;horizontal=0;startSize=0;swimlaneHead=0;swimlaneBody=0;strokeColor=inherit;top=0;left=0;bottom=0;right=0;collapsible=0;dropTarget=0;fillColor=none;points=[[0,0.5],[1,0.5]];portConstraint=eastwest;fontSize=13;" parent="3SDEc3MKjUo-QjRz-hxS-13" vertex="1">
          <mxGeometry y="70" width="790" height="20" as="geometry" />
        </mxCell>
        <mxCell id="3SDEc3MKjUo-QjRz-hxS-144" style="shape=partialRectangle;html=1;whiteSpace=wrap;connectable=0;strokeColor=inherit;overflow=hidden;fillColor=none;top=0;left=0;bottom=0;right=0;pointerEvents=1;fontSize=13;" parent="3SDEc3MKjUo-QjRz-hxS-22" vertex="1">
          <mxGeometry width="31" height="20" as="geometry">
            <mxRectangle width="31" height="20" as="alternateBounds" />
          </mxGeometry>
        </mxCell>
        <mxCell id="3SDEc3MKjUo-QjRz-hxS-159" style="shape=partialRectangle;html=1;whiteSpace=wrap;connectable=0;strokeColor=inherit;overflow=hidden;fillColor=none;top=0;left=0;bottom=0;right=0;pointerEvents=1;fontSize=13;" parent="3SDEc3MKjUo-QjRz-hxS-22" vertex="1">
          <mxGeometry x="31" width="119" height="20" as="geometry">
            <mxRectangle width="119" height="20" as="alternateBounds" />
          </mxGeometry>
        </mxCell>
        <mxCell id="3SDEc3MKjUo-QjRz-hxS-23" value="" style="shape=partialRectangle;html=1;whiteSpace=wrap;connectable=0;strokeColor=inherit;overflow=hidden;fillColor=none;top=0;left=0;bottom=0;right=0;pointerEvents=1;fontSize=13;" parent="3SDEc3MKjUo-QjRz-hxS-22" vertex="1">
          <mxGeometry x="150" width="118" height="20" as="geometry">
            <mxRectangle width="118" height="20" as="alternateBounds" />
          </mxGeometry>
        </mxCell>
        <mxCell id="3SDEc3MKjUo-QjRz-hxS-24" value="" style="shape=partialRectangle;html=1;whiteSpace=wrap;connectable=0;strokeColor=inherit;overflow=hidden;fillColor=none;top=0;left=0;bottom=0;right=0;pointerEvents=1;fontSize=13;" parent="3SDEc3MKjUo-QjRz-hxS-22" vertex="1">
          <mxGeometry x="268" width="75" height="20" as="geometry">
            <mxRectangle width="75" height="20" as="alternateBounds" />
          </mxGeometry>
        </mxCell>
        <mxCell id="3SDEc3MKjUo-QjRz-hxS-40" style="shape=partialRectangle;html=1;whiteSpace=wrap;connectable=0;strokeColor=inherit;overflow=hidden;fillColor=none;top=0;left=0;bottom=0;right=0;pointerEvents=1;fontSize=13;" parent="3SDEc3MKjUo-QjRz-hxS-22" vertex="1">
          <mxGeometry x="343" width="73" height="20" as="geometry">
            <mxRectangle width="73" height="20" as="alternateBounds" />
          </mxGeometry>
        </mxCell>
        <mxCell id="3SDEc3MKjUo-QjRz-hxS-25" value="" style="shape=partialRectangle;html=1;whiteSpace=wrap;connectable=0;strokeColor=inherit;overflow=hidden;fillColor=none;top=0;left=0;bottom=0;right=0;pointerEvents=1;fontSize=13;" parent="3SDEc3MKjUo-QjRz-hxS-22" vertex="1">
          <mxGeometry x="416" width="76" height="20" as="geometry">
            <mxRectangle width="76" height="20" as="alternateBounds" />
          </mxGeometry>
        </mxCell>
        <mxCell id="3SDEc3MKjUo-QjRz-hxS-37" style="shape=partialRectangle;html=1;whiteSpace=wrap;connectable=0;strokeColor=inherit;overflow=hidden;fillColor=none;top=0;left=0;bottom=0;right=0;pointerEvents=1;fontSize=13;" parent="3SDEc3MKjUo-QjRz-hxS-22" vertex="1">
          <mxGeometry x="492" width="75" height="20" as="geometry">
            <mxRectangle width="75" height="20" as="alternateBounds" />
          </mxGeometry>
        </mxCell>
        <mxCell id="3SDEc3MKjUo-QjRz-hxS-28" style="shape=partialRectangle;html=1;whiteSpace=wrap;connectable=0;strokeColor=inherit;overflow=hidden;fillColor=none;top=0;left=0;bottom=0;right=0;pointerEvents=1;fontSize=13;" parent="3SDEc3MKjUo-QjRz-hxS-22" vertex="1">
          <mxGeometry x="567" width="74" height="20" as="geometry">
            <mxRectangle width="74" height="20" as="alternateBounds" />
          </mxGeometry>
        </mxCell>
        <mxCell id="3SDEc3MKjUo-QjRz-hxS-31" style="shape=partialRectangle;html=1;whiteSpace=wrap;connectable=0;strokeColor=inherit;overflow=hidden;fillColor=none;top=0;left=0;bottom=0;right=0;pointerEvents=1;fontSize=13;" parent="3SDEc3MKjUo-QjRz-hxS-22" vertex="1">
          <mxGeometry x="641" width="74" height="20" as="geometry">
            <mxRectangle width="74" height="20" as="alternateBounds" />
          </mxGeometry>
        </mxCell>
        <mxCell id="3SDEc3MKjUo-QjRz-hxS-34" style="shape=partialRectangle;html=1;whiteSpace=wrap;connectable=0;strokeColor=inherit;overflow=hidden;fillColor=none;top=0;left=0;bottom=0;right=0;pointerEvents=1;fontSize=13;" parent="3SDEc3MKjUo-QjRz-hxS-22" vertex="1">
          <mxGeometry x="715" width="75" height="20" as="geometry">
            <mxRectangle width="75" height="20" as="alternateBounds" />
          </mxGeometry>
        </mxCell>
        <mxCell id="3SDEc3MKjUo-QjRz-hxS-48" value="&lt;font face=&quot;monospace&quot;&gt;Event logs&lt;/font&gt;" style="text;html=1;align=left;verticalAlign=top;resizable=0;points=[];autosize=1;strokeColor=none;fillColor=none;spacing=2;fontSize=13;" parent="1" vertex="1">
          <mxGeometry x="22.5" y="1607" width="98" height="28" as="geometry" />
        </mxCell>
        <mxCell id="3SDEc3MKjUo-QjRz-hxS-49" value="&lt;font face=&quot;monospace&quot;&gt;Mount rules by UID/GID&lt;/font&gt;" style="text;html=1;align=left;verticalAlign=top;resizable=0;points=[];autosize=1;strokeColor=none;fillColor=none;spacing=2;fontSize=13;" parent="1" vertex="1">
          <mxGeometry x="22.5" y="1385" width="194" height="28" as="geometry" />
        </mxCell>
        <mxCell id="3SDEc3MKjUo-QjRz-hxS-50" value="" style="endArrow=none;html=1;rounded=0;fontSize=13;" parent="1" edge="1">
          <mxGeometry width="50" height="50" relative="1" as="geometry">
            <mxPoint x="22.5" y="1602" as="sourcePoint" />
            <mxPoint x="812.5" y="1602" as="targetPoint" />
          </mxGeometry>
        </mxCell>
        <mxCell id="3SDEc3MKjUo-QjRz-hxS-51" value="" style="endArrow=none;html=1;rounded=0;fontSize=13;" parent="1" edge="1">
          <mxGeometry width="50" height="50" relative="1" as="geometry">
            <mxPoint x="22.5" y="1374" as="sourcePoint" />
            <mxPoint x="812.5" y="1374" as="targetPoint" />
          </mxGeometry>
        </mxCell>
        <mxCell id="3SDEc3MKjUo-QjRz-hxS-53" value="Connected USB devices" style="text;html=1;align=left;verticalAlign=top;resizable=0;points=[];autosize=1;strokeColor=none;fillColor=none;spacing=2;fontSize=13;" parent="1" vertex="1">
          <mxGeometry x="11" y="205" width="151" height="28" as="geometry" />
        </mxCell>
        <mxCell id="3SDEc3MKjUo-QjRz-hxS-80" value="Masks CC:SS:PP" style="shape=table;startSize=30;container=1;collapsible=0;childLayout=tableLayout;strokeColor=#6c8ebf;fontSize=13;fillColor=#dae8fc;" parent="1" vertex="1">
          <mxGeometry x="22.5" y="925" width="790" height="90" as="geometry" />
        </mxCell>
        <mxCell id="3SDEc3MKjUo-QjRz-hxS-81" value="" style="shape=tableRow;horizontal=0;startSize=0;swimlaneHead=0;swimlaneBody=0;strokeColor=inherit;top=0;left=0;bottom=0;right=0;collapsible=0;dropTarget=0;fillColor=none;points=[[0,0.5],[1,0.5]];portConstraint=eastwest;fontSize=13;" parent="3SDEc3MKjUo-QjRz-hxS-80" vertex="1">
          <mxGeometry y="30" width="790" height="20" as="geometry" />
        </mxCell>
        <mxCell id="3SDEc3MKjUo-QjRz-hxS-145" value="№" style="shape=partialRectangle;html=1;whiteSpace=wrap;connectable=0;strokeColor=inherit;overflow=hidden;fillColor=none;top=0;left=0;bottom=0;right=0;pointerEvents=1;fontSize=13;" parent="3SDEc3MKjUo-QjRz-hxS-81" vertex="1">
          <mxGeometry width="27" height="20" as="geometry">
            <mxRectangle width="27" height="20" as="alternateBounds" />
          </mxGeometry>
        </mxCell>
        <mxCell id="3SDEc3MKjUo-QjRz-hxS-82" value="CC:SS:PP&amp;nbsp;↓" style="shape=partialRectangle;html=1;whiteSpace=wrap;connectable=0;strokeColor=inherit;overflow=hidden;fillColor=none;top=0;left=0;bottom=0;right=0;pointerEvents=1;fontSize=13;" parent="3SDEc3MKjUo-QjRz-hxS-81" vertex="1">
          <mxGeometry x="27" width="99" height="20" as="geometry">
            <mxRectangle width="99" height="20" as="alternateBounds" />
          </mxGeometry>
        </mxCell>
        <mxCell id="3SDEc3MKjUo-QjRz-hxS-87" value="Description" style="shape=partialRectangle;html=1;whiteSpace=wrap;connectable=0;strokeColor=inherit;overflow=hidden;fillColor=none;top=0;left=0;bottom=0;right=0;pointerEvents=1;fontSize=13;" parent="3SDEc3MKjUo-QjRz-hxS-81" vertex="1">
          <mxGeometry x="126" width="436" height="20" as="geometry">
            <mxRectangle width="436" height="20" as="alternateBounds" />
          </mxGeometry>
        </mxCell>
        <mxCell id="3SDEc3MKjUo-QjRz-hxS-151" value="Port" style="shape=partialRectangle;html=1;whiteSpace=wrap;connectable=0;strokeColor=inherit;overflow=hidden;fillColor=none;top=0;left=0;bottom=0;right=0;pointerEvents=1;fontSize=13;" parent="3SDEc3MKjUo-QjRz-hxS-81" vertex="1">
          <mxGeometry x="562" width="113" height="20" as="geometry">
            <mxRectangle width="113" height="20" as="alternateBounds" />
          </mxGeometry>
        </mxCell>
        <mxCell id="3SDEc3MKjUo-QjRz-hxS-88" value="Action" style="shape=partialRectangle;html=1;whiteSpace=wrap;connectable=0;strokeColor=inherit;overflow=hidden;fillColor=none;top=0;left=0;bottom=0;right=0;pointerEvents=1;fontSize=13;" parent="3SDEc3MKjUo-QjRz-hxS-81" vertex="1">
          <mxGeometry x="675" width="115" height="20" as="geometry">
            <mxRectangle width="115" height="20" as="alternateBounds" />
          </mxGeometry>
        </mxCell>
        <mxCell id="3SDEc3MKjUo-QjRz-hxS-90" value="" style="shape=tableRow;horizontal=0;startSize=0;swimlaneHead=0;swimlaneBody=0;strokeColor=inherit;top=0;left=0;bottom=0;right=0;collapsible=0;dropTarget=0;fillColor=none;points=[[0,0.5],[1,0.5]];portConstraint=eastwest;fontSize=13;" parent="3SDEc3MKjUo-QjRz-hxS-80" vertex="1">
          <mxGeometry y="50" width="790" height="20" as="geometry" />
        </mxCell>
        <mxCell id="3SDEc3MKjUo-QjRz-hxS-146" style="shape=partialRectangle;html=1;whiteSpace=wrap;connectable=0;strokeColor=inherit;overflow=hidden;fillColor=none;top=0;left=0;bottom=0;right=0;pointerEvents=1;fontSize=13;" parent="3SDEc3MKjUo-QjRz-hxS-90" vertex="1">
          <mxGeometry width="27" height="20" as="geometry">
            <mxRectangle width="27" height="20" as="alternateBounds" />
          </mxGeometry>
        </mxCell>
        <mxCell id="3SDEc3MKjUo-QjRz-hxS-91" value="" style="shape=partialRectangle;html=1;whiteSpace=wrap;connectable=0;strokeColor=inherit;overflow=hidden;fillColor=none;top=0;left=0;bottom=0;right=0;pointerEvents=1;fontSize=13;" parent="3SDEc3MKjUo-QjRz-hxS-90" vertex="1">
          <mxGeometry x="27" width="99" height="20" as="geometry">
            <mxRectangle width="99" height="20" as="alternateBounds" />
          </mxGeometry>
        </mxCell>
        <mxCell id="3SDEc3MKjUo-QjRz-hxS-96" style="shape=partialRectangle;html=1;whiteSpace=wrap;connectable=0;strokeColor=inherit;overflow=hidden;fillColor=none;top=0;left=0;bottom=0;right=0;pointerEvents=1;fontSize=13;" parent="3SDEc3MKjUo-QjRz-hxS-90" vertex="1">
          <mxGeometry x="126" width="436" height="20" as="geometry">
            <mxRectangle width="436" height="20" as="alternateBounds" />
          </mxGeometry>
        </mxCell>
        <mxCell id="3SDEc3MKjUo-QjRz-hxS-152" style="shape=partialRectangle;html=1;whiteSpace=wrap;connectable=0;strokeColor=inherit;overflow=hidden;fillColor=none;top=0;left=0;bottom=0;right=0;pointerEvents=1;fontSize=13;" parent="3SDEc3MKjUo-QjRz-hxS-90" vertex="1">
          <mxGeometry x="562" width="113" height="20" as="geometry">
            <mxRectangle width="113" height="20" as="alternateBounds" />
          </mxGeometry>
        </mxCell>
        <mxCell id="3SDEc3MKjUo-QjRz-hxS-97" style="shape=partialRectangle;html=1;whiteSpace=wrap;connectable=0;strokeColor=inherit;overflow=hidden;fillColor=none;top=0;left=0;bottom=0;right=0;pointerEvents=1;fontSize=13;" parent="3SDEc3MKjUo-QjRz-hxS-90" vertex="1">
          <mxGeometry x="675" width="115" height="20" as="geometry">
            <mxRectangle width="115" height="20" as="alternateBounds" />
          </mxGeometry>
        </mxCell>
        <mxCell id="3SDEc3MKjUo-QjRz-hxS-99" value="" style="shape=tableRow;horizontal=0;startSize=0;swimlaneHead=0;swimlaneBody=0;strokeColor=inherit;top=0;left=0;bottom=0;right=0;collapsible=0;dropTarget=0;fillColor=none;points=[[0,0.5],[1,0.5]];portConstraint=eastwest;fontSize=13;" parent="3SDEc3MKjUo-QjRz-hxS-80" vertex="1">
          <mxGeometry y="70" width="790" height="20" as="geometry" />
        </mxCell>
        <mxCell id="3SDEc3MKjUo-QjRz-hxS-147" style="shape=partialRectangle;html=1;whiteSpace=wrap;connectable=0;strokeColor=inherit;overflow=hidden;fillColor=none;top=0;left=0;bottom=0;right=0;pointerEvents=1;fontSize=13;" parent="3SDEc3MKjUo-QjRz-hxS-99" vertex="1">
          <mxGeometry width="27" height="20" as="geometry">
            <mxRectangle width="27" height="20" as="alternateBounds" />
          </mxGeometry>
        </mxCell>
        <mxCell id="3SDEc3MKjUo-QjRz-hxS-100" value="" style="shape=partialRectangle;html=1;whiteSpace=wrap;connectable=0;strokeColor=inherit;overflow=hidden;fillColor=none;top=0;left=0;bottom=0;right=0;pointerEvents=1;fontSize=13;" parent="3SDEc3MKjUo-QjRz-hxS-99" vertex="1">
          <mxGeometry x="27" width="99" height="20" as="geometry">
            <mxRectangle width="99" height="20" as="alternateBounds" />
          </mxGeometry>
        </mxCell>
        <mxCell id="3SDEc3MKjUo-QjRz-hxS-105" style="shape=partialRectangle;html=1;whiteSpace=wrap;connectable=0;strokeColor=inherit;overflow=hidden;fillColor=none;top=0;left=0;bottom=0;right=0;pointerEvents=1;fontSize=13;" parent="3SDEc3MKjUo-QjRz-hxS-99" vertex="1">
          <mxGeometry x="126" width="436" height="20" as="geometry">
            <mxRectangle width="436" height="20" as="alternateBounds" />
          </mxGeometry>
        </mxCell>
        <mxCell id="3SDEc3MKjUo-QjRz-hxS-153" style="shape=partialRectangle;html=1;whiteSpace=wrap;connectable=0;strokeColor=inherit;overflow=hidden;fillColor=none;top=0;left=0;bottom=0;right=0;pointerEvents=1;fontSize=13;" parent="3SDEc3MKjUo-QjRz-hxS-99" vertex="1">
          <mxGeometry x="562" width="113" height="20" as="geometry">
            <mxRectangle width="113" height="20" as="alternateBounds" />
          </mxGeometry>
        </mxCell>
        <mxCell id="3SDEc3MKjUo-QjRz-hxS-106" style="shape=partialRectangle;html=1;whiteSpace=wrap;connectable=0;strokeColor=inherit;overflow=hidden;fillColor=none;top=0;left=0;bottom=0;right=0;pointerEvents=1;fontSize=13;" parent="3SDEc3MKjUo-QjRz-hxS-99" vertex="1">
          <mxGeometry x="675" width="115" height="20" as="geometry">
            <mxRectangle width="115" height="20" as="alternateBounds" />
          </mxGeometry>
        </mxCell>
        <mxCell id="3SDEc3MKjUo-QjRz-hxS-108" value="Masks PID:VID" style="shape=table;startSize=30;container=1;collapsible=0;childLayout=tableLayout;strokeColor=#6c8ebf;fontSize=13;fillColor=#dae8fc;" parent="1" vertex="1">
          <mxGeometry x="22.5" y="1078" width="790" height="90" as="geometry" />
        </mxCell>
        <mxCell id="3SDEc3MKjUo-QjRz-hxS-109" value="" style="shape=tableRow;horizontal=0;startSize=0;swimlaneHead=0;swimlaneBody=0;strokeColor=inherit;top=0;left=0;bottom=0;right=0;collapsible=0;dropTarget=0;fillColor=none;points=[[0,0.5],[1,0.5]];portConstraint=eastwest;fontSize=13;" parent="3SDEc3MKjUo-QjRz-hxS-108" vertex="1">
          <mxGeometry y="30" width="790" height="20" as="geometry" />
        </mxCell>
        <mxCell id="3SDEc3MKjUo-QjRz-hxS-148" value="№" style="shape=partialRectangle;html=1;whiteSpace=wrap;connectable=0;strokeColor=inherit;overflow=hidden;fillColor=none;top=0;left=0;bottom=0;right=0;pointerEvents=1;fontSize=13;" parent="3SDEc3MKjUo-QjRz-hxS-109" vertex="1">
          <mxGeometry width="36" height="20" as="geometry">
            <mxRectangle width="36" height="20" as="alternateBounds" />
          </mxGeometry>
        </mxCell>
        <mxCell id="3SDEc3MKjUo-QjRz-hxS-111" value="VID" style="shape=partialRectangle;html=1;whiteSpace=wrap;connectable=0;strokeColor=inherit;overflow=hidden;fillColor=none;top=0;left=0;bottom=0;right=0;pointerEvents=1;fontSize=13;" parent="3SDEc3MKjUo-QjRz-hxS-109" vertex="1">
          <mxGeometry x="36" width="60" height="20" as="geometry">
            <mxRectangle width="60" height="20" as="alternateBounds" />
          </mxGeometry>
        </mxCell>
        <mxCell id="3SDEc3MKjUo-QjRz-hxS-112" value="Vendor" style="shape=partialRectangle;html=1;whiteSpace=wrap;connectable=0;strokeColor=inherit;overflow=hidden;fillColor=none;top=0;left=0;bottom=0;right=0;pointerEvents=1;fontSize=13;" parent="3SDEc3MKjUo-QjRz-hxS-109" vertex="1">
          <mxGeometry x="96" width="190" height="20" as="geometry">
            <mxRectangle width="190" height="20" as="alternateBounds" />
          </mxGeometry>
        </mxCell>
        <mxCell id="3SDEc3MKjUo-QjRz-hxS-113" value="PID" style="shape=partialRectangle;html=1;whiteSpace=wrap;connectable=0;strokeColor=inherit;overflow=hidden;fillColor=none;top=0;left=0;bottom=0;right=0;pointerEvents=1;fontSize=13;" parent="3SDEc3MKjUo-QjRz-hxS-109" vertex="1">
          <mxGeometry x="286" width="76" height="20" as="geometry">
            <mxRectangle width="76" height="20" as="alternateBounds" />
          </mxGeometry>
        </mxCell>
        <mxCell id="3SDEc3MKjUo-QjRz-hxS-114" value="Product" style="shape=partialRectangle;html=1;whiteSpace=wrap;connectable=0;strokeColor=inherit;overflow=hidden;fillColor=none;top=0;left=0;bottom=0;right=0;pointerEvents=1;fontSize=13;" parent="3SDEc3MKjUo-QjRz-hxS-109" vertex="1">
          <mxGeometry x="362" width="202" height="20" as="geometry">
            <mxRectangle width="202" height="20" as="alternateBounds" />
          </mxGeometry>
        </mxCell>
        <mxCell id="3SDEc3MKjUo-QjRz-hxS-154" value="Port" style="shape=partialRectangle;html=1;whiteSpace=wrap;connectable=0;strokeColor=inherit;overflow=hidden;fillColor=none;top=0;left=0;bottom=0;right=0;pointerEvents=1;fontSize=13;" parent="3SDEc3MKjUo-QjRz-hxS-109" vertex="1">
          <mxGeometry x="564" width="113" height="20" as="geometry">
            <mxRectangle width="113" height="20" as="alternateBounds" />
          </mxGeometry>
        </mxCell>
        <mxCell id="3SDEc3MKjUo-QjRz-hxS-117" value="Action" style="shape=partialRectangle;html=1;whiteSpace=wrap;connectable=0;strokeColor=inherit;overflow=hidden;fillColor=none;top=0;left=0;bottom=0;right=0;pointerEvents=1;fontSize=13;" parent="3SDEc3MKjUo-QjRz-hxS-109" vertex="1">
          <mxGeometry x="677" width="113" height="20" as="geometry">
            <mxRectangle width="113" height="20" as="alternateBounds" />
          </mxGeometry>
        </mxCell>
        <mxCell id="3SDEc3MKjUo-QjRz-hxS-118" value="" style="shape=tableRow;horizontal=0;startSize=0;swimlaneHead=0;swimlaneBody=0;strokeColor=inherit;top=0;left=0;bottom=0;right=0;collapsible=0;dropTarget=0;fillColor=none;points=[[0,0.5],[1,0.5]];portConstraint=eastwest;fontSize=13;" parent="3SDEc3MKjUo-QjRz-hxS-108" vertex="1">
          <mxGeometry y="50" width="790" height="20" as="geometry" />
        </mxCell>
        <mxCell id="3SDEc3MKjUo-QjRz-hxS-149" style="shape=partialRectangle;html=1;whiteSpace=wrap;connectable=0;strokeColor=inherit;overflow=hidden;fillColor=none;top=0;left=0;bottom=0;right=0;pointerEvents=1;fontSize=13;" parent="3SDEc3MKjUo-QjRz-hxS-118" vertex="1">
          <mxGeometry width="36" height="20" as="geometry">
            <mxRectangle width="36" height="20" as="alternateBounds" />
          </mxGeometry>
        </mxCell>
        <mxCell id="3SDEc3MKjUo-QjRz-hxS-120" value="" style="shape=partialRectangle;html=1;whiteSpace=wrap;connectable=0;strokeColor=inherit;overflow=hidden;fillColor=none;top=0;left=0;bottom=0;right=0;pointerEvents=1;fontSize=13;" parent="3SDEc3MKjUo-QjRz-hxS-118" vertex="1">
          <mxGeometry x="36" width="60" height="20" as="geometry">
            <mxRectangle width="60" height="20" as="alternateBounds" />
          </mxGeometry>
        </mxCell>
        <mxCell id="3SDEc3MKjUo-QjRz-hxS-121" style="shape=partialRectangle;html=1;whiteSpace=wrap;connectable=0;strokeColor=inherit;overflow=hidden;fillColor=none;top=0;left=0;bottom=0;right=0;pointerEvents=1;fontSize=13;" parent="3SDEc3MKjUo-QjRz-hxS-118" vertex="1">
          <mxGeometry x="96" width="190" height="20" as="geometry">
            <mxRectangle width="190" height="20" as="alternateBounds" />
          </mxGeometry>
        </mxCell>
        <mxCell id="3SDEc3MKjUo-QjRz-hxS-122" value="" style="shape=partialRectangle;html=1;whiteSpace=wrap;connectable=0;strokeColor=inherit;overflow=hidden;fillColor=none;top=0;left=0;bottom=0;right=0;pointerEvents=1;fontSize=13;" parent="3SDEc3MKjUo-QjRz-hxS-118" vertex="1">
          <mxGeometry x="286" width="76" height="20" as="geometry">
            <mxRectangle width="76" height="20" as="alternateBounds" />
          </mxGeometry>
        </mxCell>
        <mxCell id="3SDEc3MKjUo-QjRz-hxS-123" style="shape=partialRectangle;html=1;whiteSpace=wrap;connectable=0;strokeColor=inherit;overflow=hidden;fillColor=none;top=0;left=0;bottom=0;right=0;pointerEvents=1;fontSize=13;" parent="3SDEc3MKjUo-QjRz-hxS-118" vertex="1">
          <mxGeometry x="362" width="202" height="20" as="geometry">
            <mxRectangle width="202" height="20" as="alternateBounds" />
          </mxGeometry>
        </mxCell>
        <mxCell id="3SDEc3MKjUo-QjRz-hxS-155" style="shape=partialRectangle;html=1;whiteSpace=wrap;connectable=0;strokeColor=inherit;overflow=hidden;fillColor=none;top=0;left=0;bottom=0;right=0;pointerEvents=1;fontSize=13;" parent="3SDEc3MKjUo-QjRz-hxS-118" vertex="1">
          <mxGeometry x="564" width="113" height="20" as="geometry">
            <mxRectangle width="113" height="20" as="alternateBounds" />
          </mxGeometry>
        </mxCell>
        <mxCell id="3SDEc3MKjUo-QjRz-hxS-126" style="shape=partialRectangle;html=1;whiteSpace=wrap;connectable=0;strokeColor=inherit;overflow=hidden;fillColor=none;top=0;left=0;bottom=0;right=0;pointerEvents=1;fontSize=13;" parent="3SDEc3MKjUo-QjRz-hxS-118" vertex="1">
          <mxGeometry x="677" width="113" height="20" as="geometry">
            <mxRectangle width="113" height="20" as="alternateBounds" />
          </mxGeometry>
        </mxCell>
        <mxCell id="3SDEc3MKjUo-QjRz-hxS-127" value="" style="shape=tableRow;horizontal=0;startSize=0;swimlaneHead=0;swimlaneBody=0;strokeColor=inherit;top=0;left=0;bottom=0;right=0;collapsible=0;dropTarget=0;fillColor=none;points=[[0,0.5],[1,0.5]];portConstraint=eastwest;fontSize=13;" parent="3SDEc3MKjUo-QjRz-hxS-108" vertex="1">
          <mxGeometry y="70" width="790" height="20" as="geometry" />
        </mxCell>
        <mxCell id="3SDEc3MKjUo-QjRz-hxS-150" style="shape=partialRectangle;html=1;whiteSpace=wrap;connectable=0;strokeColor=inherit;overflow=hidden;fillColor=none;top=0;left=0;bottom=0;right=0;pointerEvents=1;fontSize=13;" parent="3SDEc3MKjUo-QjRz-hxS-127" vertex="1">
          <mxGeometry width="36" height="20" as="geometry">
            <mxRectangle width="36" height="20" as="alternateBounds" />
          </mxGeometry>
        </mxCell>
        <mxCell id="3SDEc3MKjUo-QjRz-hxS-129" value="" style="shape=partialRectangle;html=1;whiteSpace=wrap;connectable=0;strokeColor=inherit;overflow=hidden;fillColor=none;top=0;left=0;bottom=0;right=0;pointerEvents=1;fontSize=13;" parent="3SDEc3MKjUo-QjRz-hxS-127" vertex="1">
          <mxGeometry x="36" width="60" height="20" as="geometry">
            <mxRectangle width="60" height="20" as="alternateBounds" />
          </mxGeometry>
        </mxCell>
        <mxCell id="3SDEc3MKjUo-QjRz-hxS-130" style="shape=partialRectangle;html=1;whiteSpace=wrap;connectable=0;strokeColor=inherit;overflow=hidden;fillColor=none;top=0;left=0;bottom=0;right=0;pointerEvents=1;fontSize=13;" parent="3SDEc3MKjUo-QjRz-hxS-127" vertex="1">
          <mxGeometry x="96" width="190" height="20" as="geometry">
            <mxRectangle width="190" height="20" as="alternateBounds" />
          </mxGeometry>
        </mxCell>
        <mxCell id="3SDEc3MKjUo-QjRz-hxS-131" value="" style="shape=partialRectangle;html=1;whiteSpace=wrap;connectable=0;strokeColor=inherit;overflow=hidden;fillColor=none;top=0;left=0;bottom=0;right=0;pointerEvents=1;fontSize=13;" parent="3SDEc3MKjUo-QjRz-hxS-127" vertex="1">
          <mxGeometry x="286" width="76" height="20" as="geometry">
            <mxRectangle width="76" height="20" as="alternateBounds" />
          </mxGeometry>
        </mxCell>
        <mxCell id="3SDEc3MKjUo-QjRz-hxS-132" style="shape=partialRectangle;html=1;whiteSpace=wrap;connectable=0;strokeColor=inherit;overflow=hidden;fillColor=none;top=0;left=0;bottom=0;right=0;pointerEvents=1;fontSize=13;" parent="3SDEc3MKjUo-QjRz-hxS-127" vertex="1">
          <mxGeometry x="362" width="202" height="20" as="geometry">
            <mxRectangle width="202" height="20" as="alternateBounds" />
          </mxGeometry>
        </mxCell>
        <mxCell id="3SDEc3MKjUo-QjRz-hxS-156" style="shape=partialRectangle;html=1;whiteSpace=wrap;connectable=0;strokeColor=inherit;overflow=hidden;fillColor=none;top=0;left=0;bottom=0;right=0;pointerEvents=1;fontSize=13;" parent="3SDEc3MKjUo-QjRz-hxS-127" vertex="1">
          <mxGeometry x="564" width="113" height="20" as="geometry">
            <mxRectangle width="113" height="20" as="alternateBounds" />
          </mxGeometry>
        </mxCell>
        <mxCell id="3SDEc3MKjUo-QjRz-hxS-135" style="shape=partialRectangle;html=1;whiteSpace=wrap;connectable=0;strokeColor=inherit;overflow=hidden;fillColor=none;top=0;left=0;bottom=0;right=0;pointerEvents=1;fontSize=13;" parent="3SDEc3MKjUo-QjRz-hxS-127" vertex="1">
          <mxGeometry x="677" width="113" height="20" as="geometry">
            <mxRectangle width="113" height="20" as="alternateBounds" />
          </mxGeometry>
        </mxCell>
        <mxCell id="3SDEc3MKjUo-QjRz-hxS-136" value="Load from file" style="rounded=1;whiteSpace=wrap;html=1;fillColor=#dae8fc;strokeColor=#6c8ebf;fontSize=13;" parent="1" vertex="1">
          <mxGeometry x="392.5" y="1025" width="140" height="25" as="geometry" />
        </mxCell>
        <mxCell id="3SDEc3MKjUo-QjRz-hxS-137" value="Delete" style="rounded=1;whiteSpace=wrap;html=1;fillColor=#dae8fc;strokeColor=#6c8ebf;fontSize=13;" parent="1" vertex="1">
          <mxGeometry x="682.5" y="1025" width="130" height="25" as="geometry" />
        </mxCell>
        <mxCell id="3SDEc3MKjUo-QjRz-hxS-138" value="Add" style="rounded=1;whiteSpace=wrap;html=1;fillColor=#dae8fc;strokeColor=#6c8ebf;fontSize=13;" parent="1" vertex="1">
          <mxGeometry x="542.5" y="1025" width="130" height="25" as="geometry" />
        </mxCell>
        <mxCell id="3SDEc3MKjUo-QjRz-hxS-139" value="Load from file" style="rounded=1;whiteSpace=wrap;html=1;fillColor=#dae8fc;strokeColor=#6c8ebf;fontSize=13;" parent="1" vertex="1">
          <mxGeometry x="392.5" y="1178" width="140" height="25" as="geometry" />
        </mxCell>
        <mxCell id="3SDEc3MKjUo-QjRz-hxS-140" value="Delete" style="rounded=1;whiteSpace=wrap;html=1;fillColor=#dae8fc;strokeColor=#6c8ebf;fontSize=13;" parent="1" vertex="1">
          <mxGeometry x="682.5" y="1178" width="130" height="25" as="geometry" />
        </mxCell>
        <mxCell id="3SDEc3MKjUo-QjRz-hxS-141" value="Add" style="rounded=1;whiteSpace=wrap;html=1;fillColor=#dae8fc;strokeColor=#6c8ebf;fontSize=13;" parent="1" vertex="1">
          <mxGeometry x="542.5" y="1178" width="130" height="25" as="geometry" />
        </mxCell>
        <mxCell id="3SDEc3MKjUo-QjRz-hxS-160" value="Action:&lt;br&gt;White: Allow&lt;br&gt;&lt;div style=&quot;&quot;&gt;&lt;span style=&quot;background-color: initial;&quot;&gt;Black:&amp;nbsp; Block, Reject&lt;/span&gt;&lt;/div&gt;" style="text;html=1;align=left;verticalAlign=middle;resizable=0;points=[];autosize=1;strokeColor=none;fillColor=none;fontSize=13;fontFamily=Helvetica;fontColor=default;" parent="1" vertex="1">
          <mxGeometry x="809" y="336.5" width="129" height="59" as="geometry" />
        </mxCell>
        <mxCell id="3SDEc3MKjUo-QjRz-hxS-167" value="Привязка мотирования USB дисков к UID/GID" style="shape=table;startSize=30;container=1;collapsible=0;childLayout=tableLayout;strokeColor=#6c8ebf;fontSize=13;fillColor=#dae8fc;" parent="1" vertex="1">
          <mxGeometry x="22.5" y="1455" width="790" height="90" as="geometry" />
        </mxCell>
        <mxCell id="3SDEc3MKjUo-QjRz-hxS-168" value="" style="shape=tableRow;horizontal=0;startSize=0;swimlaneHead=0;swimlaneBody=0;strokeColor=inherit;top=0;left=0;bottom=0;right=0;collapsible=0;dropTarget=0;fillColor=none;points=[[0,0.5],[1,0.5]];portConstraint=eastwest;fontSize=13;" parent="3SDEc3MKjUo-QjRz-hxS-167" vertex="1">
          <mxGeometry y="30" width="790" height="20" as="geometry" />
        </mxCell>
        <mxCell id="3SDEc3MKjUo-QjRz-hxS-169" value="№" style="shape=partialRectangle;html=1;whiteSpace=wrap;connectable=0;strokeColor=inherit;overflow=hidden;fillColor=none;top=0;left=0;bottom=0;right=0;pointerEvents=1;fontSize=13;" parent="3SDEc3MKjUo-QjRz-hxS-168" vertex="1">
          <mxGeometry width="36" height="20" as="geometry">
            <mxRectangle width="36" height="20" as="alternateBounds" />
          </mxGeometry>
        </mxCell>
        <mxCell id="3SDEc3MKjUo-QjRz-hxS-170" value="Hash" style="shape=partialRectangle;html=1;whiteSpace=wrap;connectable=0;strokeColor=inherit;overflow=hidden;fillColor=none;top=0;left=0;bottom=0;right=0;pointerEvents=1;fontSize=13;" parent="3SDEc3MKjUo-QjRz-hxS-168" vertex="1">
          <mxGeometry x="36" width="189" height="20" as="geometry">
            <mxRectangle width="189" height="20" as="alternateBounds" />
          </mxGeometry>
        </mxCell>
        <mxCell id="3SDEc3MKjUo-QjRz-hxS-173" value="UID" style="shape=partialRectangle;html=1;whiteSpace=wrap;connectable=0;strokeColor=inherit;overflow=hidden;fillColor=none;top=0;left=0;bottom=0;right=0;pointerEvents=1;fontSize=13;" parent="3SDEc3MKjUo-QjRz-hxS-168" vertex="1">
          <mxGeometry x="225" width="113" height="20" as="geometry">
            <mxRectangle width="113" height="20" as="alternateBounds" />
          </mxGeometry>
        </mxCell>
        <mxCell id="3SDEc3MKjUo-QjRz-hxS-195" value="User Name" style="shape=partialRectangle;html=1;whiteSpace=wrap;connectable=0;strokeColor=inherit;overflow=hidden;fillColor=none;top=0;left=0;bottom=0;right=0;pointerEvents=1;fontSize=13;" parent="3SDEc3MKjUo-QjRz-hxS-168" vertex="1">
          <mxGeometry x="338" width="114" height="20" as="geometry">
            <mxRectangle width="114" height="20" as="alternateBounds" />
          </mxGeometry>
        </mxCell>
        <mxCell id="3SDEc3MKjUo-QjRz-hxS-174" value="GID" style="shape=partialRectangle;html=1;whiteSpace=wrap;connectable=0;strokeColor=inherit;overflow=hidden;fillColor=none;top=0;left=0;bottom=0;right=0;pointerEvents=1;fontSize=13;" parent="3SDEc3MKjUo-QjRz-hxS-168" vertex="1">
          <mxGeometry x="452" width="112" height="20" as="geometry">
            <mxRectangle width="112" height="20" as="alternateBounds" />
          </mxGeometry>
        </mxCell>
        <mxCell id="3SDEc3MKjUo-QjRz-hxS-192" value="Group Name" style="shape=partialRectangle;html=1;whiteSpace=wrap;connectable=0;strokeColor=inherit;overflow=hidden;fillColor=none;top=0;left=0;bottom=0;right=0;pointerEvents=1;fontSize=13;" parent="3SDEc3MKjUo-QjRz-hxS-168" vertex="1">
          <mxGeometry x="564" width="113" height="20" as="geometry">
            <mxRectangle width="113" height="20" as="alternateBounds" />
          </mxGeometry>
        </mxCell>
        <mxCell id="3SDEc3MKjUo-QjRz-hxS-175" value="Action" style="shape=partialRectangle;html=1;whiteSpace=wrap;connectable=0;strokeColor=inherit;overflow=hidden;fillColor=none;top=0;left=0;bottom=0;right=0;pointerEvents=1;fontSize=13;" parent="3SDEc3MKjUo-QjRz-hxS-168" vertex="1">
          <mxGeometry x="677" width="113" height="20" as="geometry">
            <mxRectangle width="113" height="20" as="alternateBounds" />
          </mxGeometry>
        </mxCell>
        <mxCell id="3SDEc3MKjUo-QjRz-hxS-176" value="" style="shape=tableRow;horizontal=0;startSize=0;swimlaneHead=0;swimlaneBody=0;strokeColor=inherit;top=0;left=0;bottom=0;right=0;collapsible=0;dropTarget=0;fillColor=none;points=[[0,0.5],[1,0.5]];portConstraint=eastwest;fontSize=13;" parent="3SDEc3MKjUo-QjRz-hxS-167" vertex="1">
          <mxGeometry y="50" width="790" height="20" as="geometry" />
        </mxCell>
        <mxCell id="3SDEc3MKjUo-QjRz-hxS-177" style="shape=partialRectangle;html=1;whiteSpace=wrap;connectable=0;strokeColor=inherit;overflow=hidden;fillColor=none;top=0;left=0;bottom=0;right=0;pointerEvents=1;fontSize=13;" parent="3SDEc3MKjUo-QjRz-hxS-176" vertex="1">
          <mxGeometry width="36" height="20" as="geometry">
            <mxRectangle width="36" height="20" as="alternateBounds" />
          </mxGeometry>
        </mxCell>
        <mxCell id="3SDEc3MKjUo-QjRz-hxS-178" value="" style="shape=partialRectangle;html=1;whiteSpace=wrap;connectable=0;strokeColor=inherit;overflow=hidden;fillColor=none;top=0;left=0;bottom=0;right=0;pointerEvents=1;fontSize=13;" parent="3SDEc3MKjUo-QjRz-hxS-176" vertex="1">
          <mxGeometry x="36" width="189" height="20" as="geometry">
            <mxRectangle width="189" height="20" as="alternateBounds" />
          </mxGeometry>
        </mxCell>
        <mxCell id="3SDEc3MKjUo-QjRz-hxS-181" style="shape=partialRectangle;html=1;whiteSpace=wrap;connectable=0;strokeColor=inherit;overflow=hidden;fillColor=none;top=0;left=0;bottom=0;right=0;pointerEvents=1;fontSize=13;" parent="3SDEc3MKjUo-QjRz-hxS-176" vertex="1">
          <mxGeometry x="225" width="113" height="20" as="geometry">
            <mxRectangle width="113" height="20" as="alternateBounds" />
          </mxGeometry>
        </mxCell>
        <mxCell id="3SDEc3MKjUo-QjRz-hxS-196" style="shape=partialRectangle;html=1;whiteSpace=wrap;connectable=0;strokeColor=inherit;overflow=hidden;fillColor=none;top=0;left=0;bottom=0;right=0;pointerEvents=1;fontSize=13;" parent="3SDEc3MKjUo-QjRz-hxS-176" vertex="1">
          <mxGeometry x="338" width="114" height="20" as="geometry">
            <mxRectangle width="114" height="20" as="alternateBounds" />
          </mxGeometry>
        </mxCell>
        <mxCell id="3SDEc3MKjUo-QjRz-hxS-182" style="shape=partialRectangle;html=1;whiteSpace=wrap;connectable=0;strokeColor=inherit;overflow=hidden;fillColor=none;top=0;left=0;bottom=0;right=0;pointerEvents=1;fontSize=13;" parent="3SDEc3MKjUo-QjRz-hxS-176" vertex="1">
          <mxGeometry x="452" width="112" height="20" as="geometry">
            <mxRectangle width="112" height="20" as="alternateBounds" />
          </mxGeometry>
        </mxCell>
        <mxCell id="3SDEc3MKjUo-QjRz-hxS-193" style="shape=partialRectangle;html=1;whiteSpace=wrap;connectable=0;strokeColor=inherit;overflow=hidden;fillColor=none;top=0;left=0;bottom=0;right=0;pointerEvents=1;fontSize=13;" parent="3SDEc3MKjUo-QjRz-hxS-176" vertex="1">
          <mxGeometry x="564" width="113" height="20" as="geometry">
            <mxRectangle width="113" height="20" as="alternateBounds" />
          </mxGeometry>
        </mxCell>
        <mxCell id="3SDEc3MKjUo-QjRz-hxS-183" style="shape=partialRectangle;html=1;whiteSpace=wrap;connectable=0;strokeColor=inherit;overflow=hidden;fillColor=none;top=0;left=0;bottom=0;right=0;pointerEvents=1;fontSize=13;" parent="3SDEc3MKjUo-QjRz-hxS-176" vertex="1">
          <mxGeometry x="677" width="113" height="20" as="geometry">
            <mxRectangle width="113" height="20" as="alternateBounds" />
          </mxGeometry>
        </mxCell>
        <mxCell id="3SDEc3MKjUo-QjRz-hxS-184" value="" style="shape=tableRow;horizontal=0;startSize=0;swimlaneHead=0;swimlaneBody=0;strokeColor=inherit;top=0;left=0;bottom=0;right=0;collapsible=0;dropTarget=0;fillColor=none;points=[[0,0.5],[1,0.5]];portConstraint=eastwest;fontSize=13;" parent="3SDEc3MKjUo-QjRz-hxS-167" vertex="1">
          <mxGeometry y="70" width="790" height="20" as="geometry" />
        </mxCell>
        <mxCell id="3SDEc3MKjUo-QjRz-hxS-185" style="shape=partialRectangle;html=1;whiteSpace=wrap;connectable=0;strokeColor=inherit;overflow=hidden;fillColor=none;top=0;left=0;bottom=0;right=0;pointerEvents=1;fontSize=13;" parent="3SDEc3MKjUo-QjRz-hxS-184" vertex="1">
          <mxGeometry width="36" height="20" as="geometry">
            <mxRectangle width="36" height="20" as="alternateBounds" />
          </mxGeometry>
        </mxCell>
        <mxCell id="3SDEc3MKjUo-QjRz-hxS-186" value="" style="shape=partialRectangle;html=1;whiteSpace=wrap;connectable=0;strokeColor=inherit;overflow=hidden;fillColor=none;top=0;left=0;bottom=0;right=0;pointerEvents=1;fontSize=13;" parent="3SDEc3MKjUo-QjRz-hxS-184" vertex="1">
          <mxGeometry x="36" width="189" height="20" as="geometry">
            <mxRectangle width="189" height="20" as="alternateBounds" />
          </mxGeometry>
        </mxCell>
        <mxCell id="3SDEc3MKjUo-QjRz-hxS-189" style="shape=partialRectangle;html=1;whiteSpace=wrap;connectable=0;strokeColor=inherit;overflow=hidden;fillColor=none;top=0;left=0;bottom=0;right=0;pointerEvents=1;fontSize=13;" parent="3SDEc3MKjUo-QjRz-hxS-184" vertex="1">
          <mxGeometry x="225" width="113" height="20" as="geometry">
            <mxRectangle width="113" height="20" as="alternateBounds" />
          </mxGeometry>
        </mxCell>
        <mxCell id="3SDEc3MKjUo-QjRz-hxS-197" style="shape=partialRectangle;html=1;whiteSpace=wrap;connectable=0;strokeColor=inherit;overflow=hidden;fillColor=none;top=0;left=0;bottom=0;right=0;pointerEvents=1;fontSize=13;" parent="3SDEc3MKjUo-QjRz-hxS-184" vertex="1">
          <mxGeometry x="338" width="114" height="20" as="geometry">
            <mxRectangle width="114" height="20" as="alternateBounds" />
          </mxGeometry>
        </mxCell>
        <mxCell id="3SDEc3MKjUo-QjRz-hxS-190" style="shape=partialRectangle;html=1;whiteSpace=wrap;connectable=0;strokeColor=inherit;overflow=hidden;fillColor=none;top=0;left=0;bottom=0;right=0;pointerEvents=1;fontSize=13;" parent="3SDEc3MKjUo-QjRz-hxS-184" vertex="1">
          <mxGeometry x="452" width="112" height="20" as="geometry">
            <mxRectangle width="112" height="20" as="alternateBounds" />
          </mxGeometry>
        </mxCell>
        <mxCell id="3SDEc3MKjUo-QjRz-hxS-194" style="shape=partialRectangle;html=1;whiteSpace=wrap;connectable=0;strokeColor=inherit;overflow=hidden;fillColor=none;top=0;left=0;bottom=0;right=0;pointerEvents=1;fontSize=13;" parent="3SDEc3MKjUo-QjRz-hxS-184" vertex="1">
          <mxGeometry x="564" width="113" height="20" as="geometry">
            <mxRectangle width="113" height="20" as="alternateBounds" />
          </mxGeometry>
        </mxCell>
        <mxCell id="3SDEc3MKjUo-QjRz-hxS-191" style="shape=partialRectangle;html=1;whiteSpace=wrap;connectable=0;strokeColor=inherit;overflow=hidden;fillColor=none;top=0;left=0;bottom=0;right=0;pointerEvents=1;fontSize=13;" parent="3SDEc3MKjUo-QjRz-hxS-184" vertex="1">
          <mxGeometry x="677" width="113" height="20" as="geometry">
            <mxRectangle width="113" height="20" as="alternateBounds" />
          </mxGeometry>
        </mxCell>
        <mxCell id="3SDEc3MKjUo-QjRz-hxS-198" value="Status: Read, Read+Write" style="text;html=1;align=center;verticalAlign=middle;resizable=0;points=[];autosize=1;strokeColor=none;fillColor=none;fontSize=13;fontFamily=Helvetica;fontColor=default;" parent="1" vertex="1">
          <mxGeometry x="821" y="1155" width="170" height="30" as="geometry" />
        </mxCell>
        <mxCell id="3SDEc3MKjUo-QjRz-hxS-199" value="&lt;font style=&quot;font-size: 13px;&quot;&gt;Add event logs&amp;nbsp;&amp;nbsp;&lt;/font&gt;" style="text;html=1;align=left;verticalAlign=top;resizable=0;points=[];autosize=1;strokeColor=none;fillColor=none;spacing=2;fontSize=13;" parent="1" vertex="1">
          <mxGeometry x="52.5" y="1637" width="108" height="28" as="geometry" />
        </mxCell>
        <mxCell id="3SDEc3MKjUo-QjRz-hxS-200" value="" style="rounded=1;whiteSpace=wrap;html=1;shadow=0;labelBackgroundColor=none;strokeWidth=1;fontFamily=Verdana;fontSize=13;align=center;" parent="1" vertex="1">
          <mxGeometry x="22.5" y="1642" width="20" height="20" as="geometry" />
        </mxCell>
        <mxCell id="3SDEc3MKjUo-QjRz-hxS-201" value="&lt;font style=&quot;font-size: 13px;&quot;&gt;Use mount rules&lt;/font&gt;" style="text;html=1;align=left;verticalAlign=top;resizable=0;points=[];autosize=1;strokeColor=none;fillColor=none;spacing=2;fontSize=13;" parent="1" vertex="1">
          <mxGeometry x="52.5" y="1415" width="111" height="28" as="geometry" />
        </mxCell>
        <mxCell id="3SDEc3MKjUo-QjRz-hxS-202" value="" style="rounded=1;whiteSpace=wrap;html=1;shadow=0;labelBackgroundColor=none;strokeWidth=1;fontFamily=Verdana;fontSize=13;align=center;" parent="1" vertex="1">
          <mxGeometry x="22.5" y="1420" width="20" height="20" as="geometry" />
        </mxCell>
        <mxCell id="3SDEc3MKjUo-QjRz-hxS-203" value="Show logs" style="rounded=1;whiteSpace=wrap;html=1;fillColor=#dae8fc;strokeColor=#6c8ebf;fontSize=13;" parent="1" vertex="1">
          <mxGeometry x="672.5" y="1639.5" width="140" height="25" as="geometry" />
        </mxCell>
        <mxCell id="3SDEc3MKjUo-QjRz-hxS-204" value="AddДобавлять события в журнал только при совпадении с одной из масок" style="shape=table;startSize=30;container=1;collapsible=0;childLayout=tableLayout;strokeColor=#6c8ebf;fontSize=13;fillColor=#dae8fc;" parent="1" vertex="1">
          <mxGeometry x="22.5" y="1687" width="789" height="90" as="geometry" />
        </mxCell>
        <mxCell id="3SDEc3MKjUo-QjRz-hxS-205" value="" style="shape=tableRow;horizontal=0;startSize=0;swimlaneHead=0;swimlaneBody=0;strokeColor=inherit;top=0;left=0;bottom=0;right=0;collapsible=0;dropTarget=0;fillColor=none;points=[[0,0.5],[1,0.5]];portConstraint=eastwest;fontSize=13;" parent="3SDEc3MKjUo-QjRz-hxS-204" vertex="1">
          <mxGeometry y="30" width="789" height="20" as="geometry" />
        </mxCell>
        <mxCell id="3SDEc3MKjUo-QjRz-hxS-206" value="№" style="shape=partialRectangle;html=1;whiteSpace=wrap;connectable=0;strokeColor=inherit;overflow=hidden;fillColor=none;top=0;left=0;bottom=0;right=0;pointerEvents=1;fontSize=13;" parent="3SDEc3MKjUo-QjRz-hxS-205" vertex="1">
          <mxGeometry width="31" height="20" as="geometry">
            <mxRectangle width="31" height="20" as="alternateBounds" />
          </mxGeometry>
        </mxCell>
        <mxCell id="3SDEc3MKjUo-QjRz-hxS-207" value="CC:SS:PP" style="shape=partialRectangle;html=1;whiteSpace=wrap;connectable=0;strokeColor=inherit;overflow=hidden;fillColor=none;top=0;left=0;bottom=0;right=0;pointerEvents=1;fontSize=13;" parent="3SDEc3MKjUo-QjRz-hxS-205" vertex="1">
          <mxGeometry x="31" width="166" height="20" as="geometry">
            <mxRectangle width="166" height="20" as="alternateBounds" />
          </mxGeometry>
        </mxCell>
        <mxCell id="3SDEc3MKjUo-QjRz-hxS-208" value="VID" style="shape=partialRectangle;html=1;whiteSpace=wrap;connectable=0;strokeColor=inherit;overflow=hidden;fillColor=none;top=0;left=0;bottom=0;right=0;pointerEvents=1;fontSize=13;" parent="3SDEc3MKjUo-QjRz-hxS-205" vertex="1">
          <mxGeometry x="197" width="99" height="20" as="geometry">
            <mxRectangle width="99" height="20" as="alternateBounds" />
          </mxGeometry>
        </mxCell>
        <mxCell id="3SDEc3MKjUo-QjRz-hxS-209" value="PID" style="shape=partialRectangle;html=1;whiteSpace=wrap;connectable=0;strokeColor=inherit;overflow=hidden;fillColor=none;top=0;left=0;bottom=0;right=0;pointerEvents=1;fontSize=13;" parent="3SDEc3MKjUo-QjRz-hxS-205" vertex="1">
          <mxGeometry x="296" width="99" height="20" as="geometry">
            <mxRectangle width="99" height="20" as="alternateBounds" />
          </mxGeometry>
        </mxCell>
        <mxCell id="np7UstgXmJOTXvJY4TQt-41" value="SN" style="shape=partialRectangle;html=1;whiteSpace=wrap;connectable=0;strokeColor=inherit;overflow=hidden;fillColor=none;top=0;left=0;bottom=0;right=0;pointerEvents=1;fontSize=13;" parent="3SDEc3MKjUo-QjRz-hxS-205" vertex="1">
          <mxGeometry x="395" width="98" height="20" as="geometry">
            <mxRectangle width="98" height="20" as="alternateBounds" />
          </mxGeometry>
        </mxCell>
        <mxCell id="3SDEc3MKjUo-QjRz-hxS-210" value="Hash" style="shape=partialRectangle;html=1;whiteSpace=wrap;connectable=0;strokeColor=inherit;overflow=hidden;fillColor=none;top=0;left=0;bottom=0;right=0;pointerEvents=1;fontSize=13;" parent="3SDEc3MKjUo-QjRz-hxS-205" vertex="1">
          <mxGeometry x="493" width="98" height="20" as="geometry">
            <mxRectangle width="98" height="20" as="alternateBounds" />
          </mxGeometry>
        </mxCell>
        <mxCell id="3SDEc3MKjUo-QjRz-hxS-211" value="UID&lt;span style=&quot;white-space: pre;&quot;&gt;&lt;/span&gt;" style="shape=partialRectangle;html=1;whiteSpace=wrap;connectable=0;strokeColor=inherit;overflow=hidden;fillColor=none;top=0;left=0;bottom=0;right=0;pointerEvents=1;fontSize=13;" parent="3SDEc3MKjUo-QjRz-hxS-205" vertex="1">
          <mxGeometry x="591" width="99" height="20" as="geometry">
            <mxRectangle width="99" height="20" as="alternateBounds" />
          </mxGeometry>
        </mxCell>
        <mxCell id="3SDEc3MKjUo-QjRz-hxS-212" value="GID" style="shape=partialRectangle;html=1;whiteSpace=wrap;connectable=0;strokeColor=inherit;overflow=hidden;fillColor=none;top=0;left=0;bottom=0;right=0;pointerEvents=1;fontSize=13;" parent="3SDEc3MKjUo-QjRz-hxS-205" vertex="1">
          <mxGeometry x="690" width="99" height="20" as="geometry">
            <mxRectangle width="99" height="20" as="alternateBounds" />
          </mxGeometry>
        </mxCell>
        <mxCell id="3SDEc3MKjUo-QjRz-hxS-213" value="" style="shape=tableRow;horizontal=0;startSize=0;swimlaneHead=0;swimlaneBody=0;strokeColor=inherit;top=0;left=0;bottom=0;right=0;collapsible=0;dropTarget=0;fillColor=none;points=[[0,0.5],[1,0.5]];portConstraint=eastwest;fontSize=13;" parent="3SDEc3MKjUo-QjRz-hxS-204" vertex="1">
          <mxGeometry y="50" width="789" height="20" as="geometry" />
        </mxCell>
        <mxCell id="3SDEc3MKjUo-QjRz-hxS-214" style="shape=partialRectangle;html=1;whiteSpace=wrap;connectable=0;strokeColor=inherit;overflow=hidden;fillColor=none;top=0;left=0;bottom=0;right=0;pointerEvents=1;fontSize=13;" parent="3SDEc3MKjUo-QjRz-hxS-213" vertex="1">
          <mxGeometry width="31" height="20" as="geometry">
            <mxRectangle width="31" height="20" as="alternateBounds" />
          </mxGeometry>
        </mxCell>
        <mxCell id="3SDEc3MKjUo-QjRz-hxS-215" value="" style="shape=partialRectangle;html=1;whiteSpace=wrap;connectable=0;strokeColor=inherit;overflow=hidden;fillColor=none;top=0;left=0;bottom=0;right=0;pointerEvents=1;fontSize=13;" parent="3SDEc3MKjUo-QjRz-hxS-213" vertex="1">
          <mxGeometry x="31" width="166" height="20" as="geometry">
            <mxRectangle width="166" height="20" as="alternateBounds" />
          </mxGeometry>
        </mxCell>
        <mxCell id="3SDEc3MKjUo-QjRz-hxS-216" style="shape=partialRectangle;html=1;whiteSpace=wrap;connectable=0;strokeColor=inherit;overflow=hidden;fillColor=none;top=0;left=0;bottom=0;right=0;pointerEvents=1;fontSize=13;" parent="3SDEc3MKjUo-QjRz-hxS-213" vertex="1">
          <mxGeometry x="197" width="99" height="20" as="geometry">
            <mxRectangle width="99" height="20" as="alternateBounds" />
          </mxGeometry>
        </mxCell>
        <mxCell id="3SDEc3MKjUo-QjRz-hxS-217" style="shape=partialRectangle;html=1;whiteSpace=wrap;connectable=0;strokeColor=inherit;overflow=hidden;fillColor=none;top=0;left=0;bottom=0;right=0;pointerEvents=1;fontSize=13;" parent="3SDEc3MKjUo-QjRz-hxS-213" vertex="1">
          <mxGeometry x="296" width="99" height="20" as="geometry">
            <mxRectangle width="99" height="20" as="alternateBounds" />
          </mxGeometry>
        </mxCell>
        <mxCell id="np7UstgXmJOTXvJY4TQt-42" style="shape=partialRectangle;html=1;whiteSpace=wrap;connectable=0;strokeColor=inherit;overflow=hidden;fillColor=none;top=0;left=0;bottom=0;right=0;pointerEvents=1;fontSize=13;" parent="3SDEc3MKjUo-QjRz-hxS-213" vertex="1">
          <mxGeometry x="395" width="98" height="20" as="geometry">
            <mxRectangle width="98" height="20" as="alternateBounds" />
          </mxGeometry>
        </mxCell>
        <mxCell id="3SDEc3MKjUo-QjRz-hxS-218" style="shape=partialRectangle;html=1;whiteSpace=wrap;connectable=0;strokeColor=inherit;overflow=hidden;fillColor=none;top=0;left=0;bottom=0;right=0;pointerEvents=1;fontSize=13;" parent="3SDEc3MKjUo-QjRz-hxS-213" vertex="1">
          <mxGeometry x="493" width="98" height="20" as="geometry">
            <mxRectangle width="98" height="20" as="alternateBounds" />
          </mxGeometry>
        </mxCell>
        <mxCell id="3SDEc3MKjUo-QjRz-hxS-219" style="shape=partialRectangle;html=1;whiteSpace=wrap;connectable=0;strokeColor=inherit;overflow=hidden;fillColor=none;top=0;left=0;bottom=0;right=0;pointerEvents=1;fontSize=13;" parent="3SDEc3MKjUo-QjRz-hxS-213" vertex="1">
          <mxGeometry x="591" width="99" height="20" as="geometry">
            <mxRectangle width="99" height="20" as="alternateBounds" />
          </mxGeometry>
        </mxCell>
        <mxCell id="3SDEc3MKjUo-QjRz-hxS-220" style="shape=partialRectangle;html=1;whiteSpace=wrap;connectable=0;strokeColor=inherit;overflow=hidden;fillColor=none;top=0;left=0;bottom=0;right=0;pointerEvents=1;fontSize=13;" parent="3SDEc3MKjUo-QjRz-hxS-213" vertex="1">
          <mxGeometry x="690" width="99" height="20" as="geometry">
            <mxRectangle width="99" height="20" as="alternateBounds" />
          </mxGeometry>
        </mxCell>
        <mxCell id="3SDEc3MKjUo-QjRz-hxS-221" value="" style="shape=tableRow;horizontal=0;startSize=0;swimlaneHead=0;swimlaneBody=0;strokeColor=inherit;top=0;left=0;bottom=0;right=0;collapsible=0;dropTarget=0;fillColor=none;points=[[0,0.5],[1,0.5]];portConstraint=eastwest;fontSize=13;" parent="3SDEc3MKjUo-QjRz-hxS-204" vertex="1">
          <mxGeometry y="70" width="789" height="20" as="geometry" />
        </mxCell>
        <mxCell id="3SDEc3MKjUo-QjRz-hxS-222" style="shape=partialRectangle;html=1;whiteSpace=wrap;connectable=0;strokeColor=inherit;overflow=hidden;fillColor=none;top=0;left=0;bottom=0;right=0;pointerEvents=1;fontSize=13;" parent="3SDEc3MKjUo-QjRz-hxS-221" vertex="1">
          <mxGeometry width="31" height="20" as="geometry">
            <mxRectangle width="31" height="20" as="alternateBounds" />
          </mxGeometry>
        </mxCell>
        <mxCell id="3SDEc3MKjUo-QjRz-hxS-223" value="" style="shape=partialRectangle;html=1;whiteSpace=wrap;connectable=0;strokeColor=inherit;overflow=hidden;fillColor=none;top=0;left=0;bottom=0;right=0;pointerEvents=1;fontSize=13;" parent="3SDEc3MKjUo-QjRz-hxS-221" vertex="1">
          <mxGeometry x="31" width="166" height="20" as="geometry">
            <mxRectangle width="166" height="20" as="alternateBounds" />
          </mxGeometry>
        </mxCell>
        <mxCell id="3SDEc3MKjUo-QjRz-hxS-224" style="shape=partialRectangle;html=1;whiteSpace=wrap;connectable=0;strokeColor=inherit;overflow=hidden;fillColor=none;top=0;left=0;bottom=0;right=0;pointerEvents=1;fontSize=13;" parent="3SDEc3MKjUo-QjRz-hxS-221" vertex="1">
          <mxGeometry x="197" width="99" height="20" as="geometry">
            <mxRectangle width="99" height="20" as="alternateBounds" />
          </mxGeometry>
        </mxCell>
        <mxCell id="3SDEc3MKjUo-QjRz-hxS-225" style="shape=partialRectangle;html=1;whiteSpace=wrap;connectable=0;strokeColor=inherit;overflow=hidden;fillColor=none;top=0;left=0;bottom=0;right=0;pointerEvents=1;fontSize=13;" parent="3SDEc3MKjUo-QjRz-hxS-221" vertex="1">
          <mxGeometry x="296" width="99" height="20" as="geometry">
            <mxRectangle width="99" height="20" as="alternateBounds" />
          </mxGeometry>
        </mxCell>
        <mxCell id="np7UstgXmJOTXvJY4TQt-43" style="shape=partialRectangle;html=1;whiteSpace=wrap;connectable=0;strokeColor=inherit;overflow=hidden;fillColor=none;top=0;left=0;bottom=0;right=0;pointerEvents=1;fontSize=13;" parent="3SDEc3MKjUo-QjRz-hxS-221" vertex="1">
          <mxGeometry x="395" width="98" height="20" as="geometry">
            <mxRectangle width="98" height="20" as="alternateBounds" />
          </mxGeometry>
        </mxCell>
        <mxCell id="3SDEc3MKjUo-QjRz-hxS-226" style="shape=partialRectangle;html=1;whiteSpace=wrap;connectable=0;strokeColor=inherit;overflow=hidden;fillColor=none;top=0;left=0;bottom=0;right=0;pointerEvents=1;fontSize=13;" parent="3SDEc3MKjUo-QjRz-hxS-221" vertex="1">
          <mxGeometry x="493" width="98" height="20" as="geometry">
            <mxRectangle width="98" height="20" as="alternateBounds" />
          </mxGeometry>
        </mxCell>
        <mxCell id="3SDEc3MKjUo-QjRz-hxS-227" style="shape=partialRectangle;html=1;whiteSpace=wrap;connectable=0;strokeColor=inherit;overflow=hidden;fillColor=none;top=0;left=0;bottom=0;right=0;pointerEvents=1;fontSize=13;" parent="3SDEc3MKjUo-QjRz-hxS-221" vertex="1">
          <mxGeometry x="591" width="99" height="20" as="geometry">
            <mxRectangle width="99" height="20" as="alternateBounds" />
          </mxGeometry>
        </mxCell>
        <mxCell id="3SDEc3MKjUo-QjRz-hxS-228" style="shape=partialRectangle;html=1;whiteSpace=wrap;connectable=0;strokeColor=inherit;overflow=hidden;fillColor=none;top=0;left=0;bottom=0;right=0;pointerEvents=1;fontSize=13;" parent="3SDEc3MKjUo-QjRz-hxS-221" vertex="1">
          <mxGeometry x="690" width="99" height="20" as="geometry">
            <mxRectangle width="99" height="20" as="alternateBounds" />
          </mxGeometry>
        </mxCell>
        <mxCell id="3SDEc3MKjUo-QjRz-hxS-229" value="List" style="rounded=1;whiteSpace=wrap;html=1;fillColor=#dae8fc;strokeColor=#6c8ebf;fontSize=13;" parent="1" vertex="1">
          <mxGeometry x="682.5" y="1847.5" width="130" height="25" as="geometry" />
        </mxCell>
        <mxCell id="3SDEc3MKjUo-QjRz-hxS-243" value="Inform users about events" style="text;html=1;align=left;verticalAlign=top;resizable=0;points=[];autosize=1;strokeColor=none;fillColor=none;spacing=2;fontSize=13;" parent="1" vertex="1">
          <mxGeometry x="56.5" y="1846" width="167" height="28" as="geometry" />
        </mxCell>
        <mxCell id="3SDEc3MKjUo-QjRz-hxS-244" value="" style="rounded=1;whiteSpace=wrap;html=1;shadow=0;labelBackgroundColor=none;strokeWidth=1;fontFamily=Verdana;fontSize=13;align=center;" parent="1" vertex="1">
          <mxGeometry x="26.5" y="1851" width="20" height="20" as="geometry" />
        </mxCell>
        <mxCell id="np7UstgXmJOTXvJY4TQt-1" value="Load from file" style="rounded=1;whiteSpace=wrap;html=1;fillColor=#dae8fc;strokeColor=#6c8ebf;fontSize=13;" parent="1" vertex="1">
          <mxGeometry x="392.5" y="1551" width="140" height="25" as="geometry" />
        </mxCell>
        <mxCell id="np7UstgXmJOTXvJY4TQt-2" value="Delete" style="rounded=1;whiteSpace=wrap;html=1;fillColor=#dae8fc;strokeColor=#6c8ebf;fontSize=13;" parent="1" vertex="1">
          <mxGeometry x="682.5" y="1551" width="130" height="25" as="geometry" />
        </mxCell>
        <mxCell id="np7UstgXmJOTXvJY4TQt-3" value="Add" style="rounded=1;whiteSpace=wrap;html=1;fillColor=#dae8fc;strokeColor=#6c8ebf;fontSize=13;" parent="1" vertex="1">
          <mxGeometry x="542.5" y="1551" width="130" height="25" as="geometry" />
        </mxCell>
        <mxCell id="np7UstgXmJOTXvJY4TQt-4" value="Load from file" style="rounded=1;whiteSpace=wrap;html=1;fillColor=#dae8fc;strokeColor=#6c8ebf;fontSize=13;" parent="1" vertex="1">
          <mxGeometry x="392.5" y="1783" width="140" height="25" as="geometry" />
        </mxCell>
        <mxCell id="np7UstgXmJOTXvJY4TQt-5" value="Delete" style="rounded=1;whiteSpace=wrap;html=1;fillColor=#dae8fc;strokeColor=#6c8ebf;fontSize=13;" parent="1" vertex="1">
          <mxGeometry x="682.5" y="1783" width="130" height="25" as="geometry" />
        </mxCell>
        <mxCell id="np7UstgXmJOTXvJY4TQt-6" value="Add" style="rounded=1;whiteSpace=wrap;html=1;fillColor=#dae8fc;strokeColor=#6c8ebf;fontSize=13;" parent="1" vertex="1">
          <mxGeometry x="542.5" y="1783" width="130" height="25" as="geometry" />
        </mxCell>
        <mxCell id="np7UstgXmJOTXvJY4TQt-7" value="Masks Hash" style="shape=table;startSize=30;container=1;collapsible=0;childLayout=tableLayout;strokeColor=#6c8ebf;fontSize=13;fillColor=#dae8fc;" parent="1" vertex="1">
          <mxGeometry x="22.5" y="1231" width="791" height="90" as="geometry" />
        </mxCell>
        <mxCell id="np7UstgXmJOTXvJY4TQt-8" value="" style="shape=tableRow;horizontal=0;startSize=0;swimlaneHead=0;swimlaneBody=0;strokeColor=inherit;top=0;left=0;bottom=0;right=0;collapsible=0;dropTarget=0;fillColor=none;points=[[0,0.5],[1,0.5]];portConstraint=eastwest;fontSize=13;" parent="np7UstgXmJOTXvJY4TQt-7" vertex="1">
          <mxGeometry y="30" width="791" height="20" as="geometry" />
        </mxCell>
        <mxCell id="np7UstgXmJOTXvJY4TQt-9" value="№" style="shape=partialRectangle;html=1;whiteSpace=wrap;connectable=0;strokeColor=inherit;overflow=hidden;fillColor=none;top=0;left=0;bottom=0;right=0;pointerEvents=1;fontSize=13;" parent="np7UstgXmJOTXvJY4TQt-8" vertex="1">
          <mxGeometry width="34" height="20" as="geometry">
            <mxRectangle width="34" height="20" as="alternateBounds" />
          </mxGeometry>
        </mxCell>
        <mxCell id="np7UstgXmJOTXvJY4TQt-12" value="Hash" style="shape=partialRectangle;html=1;whiteSpace=wrap;connectable=0;strokeColor=inherit;overflow=hidden;fillColor=none;top=0;left=0;bottom=0;right=0;pointerEvents=1;fontSize=13;" parent="np7UstgXmJOTXvJY4TQt-8" vertex="1">
          <mxGeometry x="34" width="351" height="20" as="geometry">
            <mxRectangle width="351" height="20" as="alternateBounds" />
          </mxGeometry>
        </mxCell>
        <mxCell id="np7UstgXmJOTXvJY4TQt-35" value="Description?" style="shape=partialRectangle;html=1;whiteSpace=wrap;connectable=0;strokeColor=inherit;overflow=hidden;fillColor=none;top=0;left=0;bottom=0;right=0;pointerEvents=1;fontSize=13;" parent="np7UstgXmJOTXvJY4TQt-8" vertex="1">
          <mxGeometry x="385" width="251" height="20" as="geometry">
            <mxRectangle width="251" height="20" as="alternateBounds" />
          </mxGeometry>
        </mxCell>
        <mxCell id="np7UstgXmJOTXvJY4TQt-15" value="Action" style="shape=partialRectangle;html=1;whiteSpace=wrap;connectable=0;strokeColor=inherit;overflow=hidden;fillColor=none;top=0;left=0;bottom=0;right=0;pointerEvents=1;fontSize=13;" parent="np7UstgXmJOTXvJY4TQt-8" vertex="1">
          <mxGeometry x="636" width="155" height="20" as="geometry">
            <mxRectangle width="155" height="20" as="alternateBounds" />
          </mxGeometry>
        </mxCell>
        <mxCell id="np7UstgXmJOTXvJY4TQt-16" value="" style="shape=tableRow;horizontal=0;startSize=0;swimlaneHead=0;swimlaneBody=0;strokeColor=inherit;top=0;left=0;bottom=0;right=0;collapsible=0;dropTarget=0;fillColor=none;points=[[0,0.5],[1,0.5]];portConstraint=eastwest;fontSize=13;" parent="np7UstgXmJOTXvJY4TQt-7" vertex="1">
          <mxGeometry y="50" width="791" height="20" as="geometry" />
        </mxCell>
        <mxCell id="np7UstgXmJOTXvJY4TQt-17" style="shape=partialRectangle;html=1;whiteSpace=wrap;connectable=0;strokeColor=inherit;overflow=hidden;fillColor=none;top=0;left=0;bottom=0;right=0;pointerEvents=1;fontSize=13;" parent="np7UstgXmJOTXvJY4TQt-16" vertex="1">
          <mxGeometry width="34" height="20" as="geometry">
            <mxRectangle width="34" height="20" as="alternateBounds" />
          </mxGeometry>
        </mxCell>
        <mxCell id="np7UstgXmJOTXvJY4TQt-20" value="" style="shape=partialRectangle;html=1;whiteSpace=wrap;connectable=0;strokeColor=inherit;overflow=hidden;fillColor=none;top=0;left=0;bottom=0;right=0;pointerEvents=1;fontSize=13;" parent="np7UstgXmJOTXvJY4TQt-16" vertex="1">
          <mxGeometry x="34" width="351" height="20" as="geometry">
            <mxRectangle width="351" height="20" as="alternateBounds" />
          </mxGeometry>
        </mxCell>
        <mxCell id="np7UstgXmJOTXvJY4TQt-36" style="shape=partialRectangle;html=1;whiteSpace=wrap;connectable=0;strokeColor=inherit;overflow=hidden;fillColor=none;top=0;left=0;bottom=0;right=0;pointerEvents=1;fontSize=13;" parent="np7UstgXmJOTXvJY4TQt-16" vertex="1">
          <mxGeometry x="385" width="251" height="20" as="geometry">
            <mxRectangle width="251" height="20" as="alternateBounds" />
          </mxGeometry>
        </mxCell>
        <mxCell id="np7UstgXmJOTXvJY4TQt-23" style="shape=partialRectangle;html=1;whiteSpace=wrap;connectable=0;strokeColor=inherit;overflow=hidden;fillColor=none;top=0;left=0;bottom=0;right=0;pointerEvents=1;fontSize=13;" parent="np7UstgXmJOTXvJY4TQt-16" vertex="1">
          <mxGeometry x="636" width="155" height="20" as="geometry">
            <mxRectangle width="155" height="20" as="alternateBounds" />
          </mxGeometry>
        </mxCell>
        <mxCell id="np7UstgXmJOTXvJY4TQt-24" value="" style="shape=tableRow;horizontal=0;startSize=0;swimlaneHead=0;swimlaneBody=0;strokeColor=inherit;top=0;left=0;bottom=0;right=0;collapsible=0;dropTarget=0;fillColor=none;points=[[0,0.5],[1,0.5]];portConstraint=eastwest;fontSize=13;" parent="np7UstgXmJOTXvJY4TQt-7" vertex="1">
          <mxGeometry y="70" width="791" height="20" as="geometry" />
        </mxCell>
        <mxCell id="np7UstgXmJOTXvJY4TQt-25" style="shape=partialRectangle;html=1;whiteSpace=wrap;connectable=0;strokeColor=inherit;overflow=hidden;fillColor=none;top=0;left=0;bottom=0;right=0;pointerEvents=1;fontSize=13;" parent="np7UstgXmJOTXvJY4TQt-24" vertex="1">
          <mxGeometry width="34" height="20" as="geometry">
            <mxRectangle width="34" height="20" as="alternateBounds" />
          </mxGeometry>
        </mxCell>
        <mxCell id="np7UstgXmJOTXvJY4TQt-28" value="" style="shape=partialRectangle;html=1;whiteSpace=wrap;connectable=0;strokeColor=inherit;overflow=hidden;fillColor=none;top=0;left=0;bottom=0;right=0;pointerEvents=1;fontSize=13;" parent="np7UstgXmJOTXvJY4TQt-24" vertex="1">
          <mxGeometry x="34" width="351" height="20" as="geometry">
            <mxRectangle width="351" height="20" as="alternateBounds" />
          </mxGeometry>
        </mxCell>
        <mxCell id="np7UstgXmJOTXvJY4TQt-37" style="shape=partialRectangle;html=1;whiteSpace=wrap;connectable=0;strokeColor=inherit;overflow=hidden;fillColor=none;top=0;left=0;bottom=0;right=0;pointerEvents=1;fontSize=13;" parent="np7UstgXmJOTXvJY4TQt-24" vertex="1">
          <mxGeometry x="385" width="251" height="20" as="geometry">
            <mxRectangle width="251" height="20" as="alternateBounds" />
          </mxGeometry>
        </mxCell>
        <mxCell id="np7UstgXmJOTXvJY4TQt-31" style="shape=partialRectangle;html=1;whiteSpace=wrap;connectable=0;strokeColor=inherit;overflow=hidden;fillColor=none;top=0;left=0;bottom=0;right=0;pointerEvents=1;fontSize=13;" parent="np7UstgXmJOTXvJY4TQt-24" vertex="1">
          <mxGeometry x="636" width="155" height="20" as="geometry">
            <mxRectangle width="155" height="20" as="alternateBounds" />
          </mxGeometry>
        </mxCell>
        <mxCell id="np7UstgXmJOTXvJY4TQt-32" value="Load from file" style="rounded=1;whiteSpace=wrap;html=1;fillColor=#dae8fc;strokeColor=#6c8ebf;fontSize=13;" parent="1" vertex="1">
          <mxGeometry x="392.5" y="1331" width="140" height="25" as="geometry" />
        </mxCell>
        <mxCell id="np7UstgXmJOTXvJY4TQt-33" value="Delete" style="rounded=1;whiteSpace=wrap;html=1;fillColor=#dae8fc;strokeColor=#6c8ebf;fontSize=13;" parent="1" vertex="1">
          <mxGeometry x="682.5" y="1331" width="130" height="25" as="geometry" />
        </mxCell>
        <mxCell id="np7UstgXmJOTXvJY4TQt-34" value="Add" style="rounded=1;whiteSpace=wrap;html=1;fillColor=#dae8fc;strokeColor=#6c8ebf;fontSize=13;" parent="1" vertex="1">
          <mxGeometry x="542.5" y="1331" width="130" height="25" as="geometry" />
        </mxCell>
        <mxCell id="np7UstgXmJOTXvJY4TQt-39" value="Scan" style="rounded=1;whiteSpace=wrap;html=1;fillColor=#dae8fc;strokeColor=#6c8ebf;fontSize=13;" parent="1" vertex="1">
          <mxGeometry x="11" y="336.5" width="130" height="25" as="geometry" />
        </mxCell>
        <mxCell id="Hw6R5U5v4yEbz51XxS6a-1" value="Warning messages" style="whiteSpace=wrap;html=1;align=center;fontSize=16;" parent="1" vertex="1">
          <mxGeometry x="11" y="42" width="791" height="110" as="geometry" />
        </mxCell>
        <mxCell id="j7Y8htLGbgiCzbjYnlhf-2" value="" style="endArrow=none;html=1;rounded=0;fontSize=13;" parent="1" edge="1">
          <mxGeometry width="50" height="50" relative="1" as="geometry">
            <mxPoint x="12" y="202" as="sourcePoint" />
            <mxPoint x="802" y="202" as="targetPoint" />
          </mxGeometry>
        </mxCell>
        <mxCell id="zK-23l5FGaJQOKJmWewh-3" value="" style="endArrow=none;html=1;rounded=0;fontSize=13;" parent="1" edge="1">
          <mxGeometry width="50" height="50" relative="1" as="geometry">
            <mxPoint x="22" y="1893" as="sourcePoint" />
            <mxPoint x="812" y="1893" as="targetPoint" />
          </mxGeometry>
        </mxCell>
        <mxCell id="zK-23l5FGaJQOKJmWewh-4" value="Save Rules" style="rounded=1;whiteSpace=wrap;html=1;fillColor=#dae8fc;strokeColor=#6c8ebf;fontSize=13;" parent="1" vertex="1">
          <mxGeometry x="683.5" y="1906.5" width="130" height="25" as="geometry" />
        </mxCell>
        <mxCell id="4GMb9dsyqKWU-LsKyrdH-1" value="Block" style="rounded=1;whiteSpace=wrap;html=1;fillColor=#dae8fc;strokeColor=#6c8ebf;fontSize=13;" parent="1" vertex="1">
          <mxGeometry x="151" y="336.5" width="130" height="25" as="geometry" />
        </mxCell>
        <mxCell id="4GMb9dsyqKWU-LsKyrdH-2" value="Allow" style="rounded=1;whiteSpace=wrap;html=1;fillColor=#dae8fc;strokeColor=#6c8ebf;fontSize=13;" parent="1" vertex="1">
          <mxGeometry x="291" y="336.5" width="130" height="25" as="geometry" />
        </mxCell>
        <mxCell id="zK-23l5FGaJQOKJmWewh-5" value="Включить&lt;br&gt;Проверить UDEV&lt;br&gt;Проверить правила USBGuard&lt;br&gt;Если пустые, то&amp;nbsp;запустить с пресетом 1&lt;br&gt;Если есть, то распарсить по таблицам и добавить подключённые&lt;br&gt;Запустить сервис, добавить в автозагрузку" style="text;html=1;align=left;verticalAlign=middle;resizable=0;points=[];autosize=1;strokeColor=none;fillColor=none;" parent="1" vertex="1">
          <mxGeometry x="-389" y="110" width="392" height="98" as="geometry" />
        </mxCell>
        <mxCell id="zK-23l5FGaJQOKJmWewh-6" value="Выключить&lt;br&gt;остановить сервис&lt;br&gt;убрать из автозагрузки" style="text;html=1;align=left;verticalAlign=middle;resizable=0;points=[];autosize=1;strokeColor=none;fillColor=none;" parent="1" vertex="1">
          <mxGeometry x="-389" y="208" width="151" height="55" as="geometry" />
        </mxCell>
        <mxCell id="aH3rloFstmWIiXGP2HwA-1" value="Сразу в правила и сохранить" style="text;html=1;align=center;verticalAlign=middle;resizable=0;points=[];autosize=1;strokeColor=none;fillColor=none;" parent="1" vertex="1">
          <mxGeometry x="436" y="336.5" width="185" height="26" as="geometry" />
        </mxCell>
        <mxCell id="aH3rloFstmWIiXGP2HwA-2" value="Скрывать при белом" style="text;html=1;align=center;verticalAlign=middle;resizable=0;points=[];autosize=1;strokeColor=none;fillColor=none;" parent="1" vertex="1">
          <mxGeometry x="144" y="357" width="137" height="26" as="geometry" />
        </mxCell>
        <mxCell id="aH3rloFstmWIiXGP2HwA-3" value="Скрывать при чёрном" style="text;html=1;align=center;verticalAlign=middle;resizable=0;points=[];autosize=1;strokeColor=none;fillColor=none;" parent="1" vertex="1">
          <mxGeometry x="288" y="357" width="145" height="26" as="geometry" />
        </mxCell>
      </root>
    </mxGraphModel>
  </diagram>
</mxfile>
